<?xml version="1.0" encoding="utf-8"?>
<!-- Generator: Adobe Illustrator 19.0.0, SVG Export Plug-In . SVG Version: 6.00 Build 0)  -->
<svg version="1.1" id="圖層_1" xmlns="http://www.w3.org/2000/svg" xmlns:xlink="http://www.w3.org/1999/xlink" x="0px" y="0px"
	 viewBox="0 0 446 560" style="enable-background:new 0 0 446 560;" xml:space="preserve">
<style type="text/css">
	.st0{fill:none;}
	.st1{stroke:#000000;stroke-width:0.5;stroke-miterlimit:10;}
	.st2{font-family:'MicrosoftJhengHeiLight';}
	.st3{font-size:16px;}
	.st4{fill:none;stroke:#000000;stroke-width:1.5;stroke-miterlimit:10;}
	.st5{fill:none;stroke:#000000;stroke-width:1.5;stroke-miterlimit:10;stroke-dasharray:2.9853,2.9853;}
	.st6{fill:none;stroke:#000000;stroke-width:1.5;stroke-miterlimit:10;stroke-dasharray:2.9937,2.9937;}
	.st7{font-size:13px;}
	.st8{font-size:12px;}
	.st9{font-family:'AdobeMingStd-Light-B5pc-H';}
</style>
<rect x="58.7" y="6.7" class="st0" width="326.7" height="39.3"/>
<text transform="matrix(1 0 0 1 154.6398 20.9089)"><tspan x="0" y="0" class="st1 st2 st3">臺中市政府民政局 </tspan><tspan x="-76.3" y="19.2" class="st1 st2 st3">服兵役役男家屬生活扶助」作業流程圖</tspan></text>
<line class="st4" x1="10.7" y1="57.7" x2="440.6" y2="57.7"/>
<line class="st4" x1="10.7" y1="88.3" x2="440.6" y2="88.3"/>
<g>
	<g>
		<line class="st4" x1="11" y1="353.3" x2="12.5" y2="353.3"/>
		<line class="st5" x1="15.5" y1="353.3" x2="437.9" y2="353.3"/>
		<line class="st4" x1="439.4" y1="353.3" x2="440.9" y2="353.3"/>
	</g>
</g>
<g>
	<g>
		<line class="st4" x1="68.7" y1="59.3" x2="68.7" y2="60.8"/>
		<line class="st6" x1="68.7" y1="63.8" x2="68.7" y2="553.2"/>
		<line class="st4" x1="68.7" y1="554.7" x2="68.7" y2="556.2"/>
	</g>
</g>
<g>
	<g>
		<line class="st4" x1="439.9" y1="57.7" x2="439.9" y2="59.2"/>
		<line class="st6" x1="439.9" y1="62.2" x2="439.9" y2="551.6"/>
		<line class="st4" x1="439.9" y1="553.1" x2="439.9" y2="554.6"/>
	</g>
</g>
<path class="st4" d="M175.9,152.4h-64.5c-9.9,0-18-8.1-18-18v0c0-9.9,8.1-18,18-18h64.5c9.9,0,18,8.1,18,18v0
	C193.9,144.3,185.8,152.4,175.9,152.4z"/>
<path class="st4" d="M405.5,337.5H341c-9.9,0-18-8.1-18-18v0c0-9.9,8.1-18,18-18h64.5c9.9,0,18,8.1,18,18v0
	C423.5,329.4,415.4,337.5,405.5,337.5z"/>
<path class="st4" d="M175.9,405.9h-64.5c-9.9,0-18-8.1-18-18v0c0-9.9,8.1-18,18-18h64.5c9.9,0,18,8.1,18,18v0
	C193.9,397.8,185.8,405.9,175.9,405.9z"/>
<path class="st4" d="M180,554.6h-72.6c-14,0-25.5-11.5-25.5-25.5v-7.7c0-14,11.5-25.5,25.5-25.5H180c14,0,25.5,11.5,25.5,25.5v7.7
	C205.4,543.1,194,554.6,180,554.6z"/>
<text transform="matrix(1 0 0 1 11.4966 76.25)" class="st1 st2 st7">權責單位</text>
<text transform="matrix(1 0 0 1 213.9966 76.25)" class="st1 st2 st7">作業流程</text>
<text transform="matrix(1 0 0 1 18.4463 211.25)" class="st1 st2 st8">區公所</text>
<text transform="matrix(1 0 0 1 17.1665 453.25)"><tspan x="0" y="0" class="st1 st2 st8">民政局 </tspan><tspan x="-12" y="14.4" class="st1 st2 st8">勤務管理科</tspan></text>
<text transform="matrix(1 0 0 1 378.1665 187.25)" class="st1 st2 st8">是</text>
<text transform="matrix(1 0 0 1 385.1665 285.25)" class="st1 st2 st8">否</text>
<text transform="matrix(1 0 0 1 176.7798 224.5)" class="st1 st2 st8">不符合</text>
<text transform="matrix(1 0 0 1 119 262)"><tspan x="0" y="0" class="st1 st2 st8">符 </tspan><tspan x="0" y="14.4" class="st1 st2 st8">合</tspan></text>
<polygon class="st4" points="373.3,273.7 423.5,238.2 373.3,202.2 323,238.2 "/>
<polygon class="st4" points="143.7,255.9 193.9,233.7 143.7,211.2 93.4,233.7 "/>
<rect x="216" y="209" class="st4" width="89.5" height="47"/>
<rect x="98.9" y="429.7" class="st4" width="89.5" height="41.3"/>
<path class="st4" d="M171.8,334.4h-56.2c-12.2,0-22.1-10-22.1-22.1v-10.2c0-12.2,10-22.1,22.1-22.1h56.2c12.2,0,22.1,10,22.1,22.1
	v10.2C193.9,324.5,183.9,334.4,171.8,334.4z"/>
<g>
	<line class="st4" x1="143.6" y1="152.5" x2="143.6" y2="204.2"/>
	<polygon class="st1" points="143.6,209.8 146.7,203.9 140.6,203.9 	"/>
</g>
<g>
	<line class="st4" x1="143.6" y1="256" x2="143.6" y2="274.3"/>
	<polygon class="st1" points="143.6,279.9 146.7,274.1 140.6,274.1 	"/>
</g>
<g>
	<line class="st4" x1="144.2" y1="334.5" x2="144.2" y2="364.4"/>
	<polygon class="st1" points="144.1,370 147.3,364.2 141.2,364.2 	"/>
</g>
<g>
	<line class="st4" x1="144.1" y1="471" x2="144.1" y2="490.4"/>
	<polygon class="st1" points="144.1,496 147.2,490.2 141.1,490.2 	"/>
</g>
<g>
	<line class="st4" x1="144.2" y1="406" x2="144.2" y2="424.2"/>
	<polygon class="st1" points="144.1,429.8 147.3,423.9 141.2,423.9 	"/>
</g>
<g>
	<line class="st4" x1="373.2" y1="183" x2="149.8" y2="183"/>
	<polygon class="st1" points="144.3,183 150.1,186.1 150.1,180 	"/>
	<line class="st4" x1="373.3" y1="183" x2="373.3" y2="202.2"/>
</g>
<g>
	<line class="st4" x1="373.2" y1="273.7" x2="373.2" y2="295.9"/>
	<polygon class="st1" points="373.1,301.5 376.3,295.7 370.2,295.7 	"/>
</g>
<g>
	<line class="st4" x1="193.6" y1="233.7" x2="210.6" y2="233.7"/>
	<polygon class="st1" points="216.2,233.7 210.4,230.6 210.4,236.7 	"/>
</g>
<g>
	<line class="st4" x1="305.5" y1="238.1" x2="316.5" y2="238.1"/>
	<polygon class="st1" points="322.1,238.1 316.3,234.9 316.3,241 	"/>
</g>
<text transform="matrix(1 0 0 1 121.6446 139.5832)" class="st1 st2 st7">1. 收件</text>
<text transform="matrix(1 0 0 1 121.5841 239.0502)" class="st1 st2 st7">2. 初審</text>
<text transform="matrix(1 0 0 1 100.9137 311.4305)" class="st1 st2 st7">3. 呈報民政局</text>
<text transform="matrix(1 0 0 1 121.4699 393.7169)" class="st1 st2 st7">4. 收件</text>
<text transform="matrix(1 0 0 1 108.6621 456.1824)" class="st1 st2 st7">5. 審查資料</text>
<text transform="matrix(1 0 0 1 100.2444 515.282)"><tspan x="0" y="0" class="st1 st2 st7">6. 通知區公所</tspan><tspan x="16.6" y="15.6" class="st1 st9 st7">函覆申請人</tspan><tspan x="16.6" y="31.2" class="st1 st9 st7">准予或駁回</tspan></text>
<text transform="matrix(1 0 0 1 222.4604 229.5886)"><tspan x="0" y="0" class="st1 st2 st7">2.1 資料不齊 </tspan><tspan x="22.4" y="15.6" class="st1 st2 st7">通知補正</tspan></text>
<text transform="matrix(1 0 0 1 339.6915 235.9325)"><tspan x="0" y="0" class="st1 st2 st7">2.2 補正資 </tspan><tspan x="24.6" y="15.6" class="st1 st2 st7">料審查</tspan></text>
<text transform="matrix(1 0 0 1 349.3651 324.2552)" class="st1 st2 st7">2.3 駁回</text>
</svg>
