<?xml version="1.0" encoding="utf-8"?>
<!-- Generator: Adobe Illustrator 16.0.0, SVG Export Plug-In . SVG Version: 6.00 Build 0)  -->
<!DOCTYPE svg PUBLIC "-//W3C//DTD SVG 1.1//EN" "http://www.w3.org/Graphics/SVG/1.1/DTD/svg11.dtd" [
	<!ENTITY ns_extend "http://ns.adobe.com/Extensibility/1.0/">
	<!ENTITY ns_ai "http://ns.adobe.com/AdobeIllustrator/10.0/">
	<!ENTITY ns_graphs "http://ns.adobe.com/Graphs/1.0/">
	<!ENTITY ns_vars "http://ns.adobe.com/Variables/1.0/">
	<!ENTITY ns_imrep "http://ns.adobe.com/ImageReplacement/1.0/">
	<!ENTITY ns_sfw "http://ns.adobe.com/SaveForWeb/1.0/">
	<!ENTITY ns_custom "http://ns.adobe.com/GenericCustomNamespace/1.0/">
	<!ENTITY ns_adobe_xpath "http://ns.adobe.com/XPath/1.0/">
	<!ENTITY st0 "fill:#FFFFFF;">
]>
<svg version="1.1" id="圖層_1" xmlns:x="&ns_extend;" xmlns:i="&ns_ai;" xmlns:graph="&ns_graphs;"
	 xmlns="http://www.w3.org/2000/svg" xmlns:xlink="http://www.w3.org/1999/xlink" x="0px" y="0px" width="3167.666px"
	 height="497.5px" viewBox="0.0002 0 3167.666 497.5" style="enable-background:new 0.0002 0 3167.666 497.5;" xml:space="preserve"
	>
<metadata>
	<sfw  xmlns="&ns_sfw;">
		<slices></slices>
		<sliceSourceBounds  width="3126.1611" height="476.9416" bottomLeftOrigin="true" y="190.6853" x="-1283.8955">
			</sliceSourceBounds>
	</sfw>
</metadata>
<path style="&st0;" d="M443.6526,11.4053c14.5811,24.6699,31.167,47.8936,49.9023,69.5938
	c37.6494,43.6099,81.0762,80.5898,128.9863,112.4038c49.5,32.8691,102.2578,59.4175,157.8975,80.146
	c23.6406,8.8066,47.6494,16.6289,71.8223,25.0137c-72.168,0-144.207,0-216.6885,0c0.4102,9.9922,3.4492,18.5566,7.0098,26.9473
	c10.8408,25.5605,27.8975,46.7012,47.5508,65.875c34.8555,34.0088,75.5947,59.5957,118.4385,82.1211
	c1.9404,1.0205,3.6816,2.4219,5.1533,4.7285c-1.0186,0.0996-2.1113,0.4912-3.0459,0.2568
	c-73.8545-18.5234-142.2236-48.2061-199.6455-99.543c-33.1123-29.6055-58.3545-64.917-74.1396-106.6807
	c-0.4512-1.1943-0.793-2.4297-1.4063-4.3242c34.584,0,68.6133,0,102.6426,0c0.1357-0.3691,0.2705-0.7393,0.4043-1.1084
	c-4.3359-3.1367-8.7061-6.2275-13.0029-9.418c-53.3467-39.5991-101.167-84.7109-138.7832-139.8857
	c-19.9961-29.3291-35.7188-60.7212-44.3887-95.3574c-0.3184-1.2759-0.46-2.5967-0.6846-3.896
	C442.3372,15.9893,442.9944,13.6973,443.6526,11.4053z"/>
<path style="&st0;" d="M281.9006,89.8721c-6.5615,70.3599-41.4385,126.6069-88.3428,177.583c85.9277,0,171.2969,0,256.665,0
	c0.0469,0.3857,0.0938,0.7734,0.1416,1.1592c-5.8857,0.9297-11.7588,1.9482-17.6602,2.7734
	c-18.6045,2.6025-37.2148,5.1689-55.833,7.6807c-26.2012,3.5332-52.4121,6.998-78.6172,10.5039
	c-9.8916,1.3223-19.8242,2.4316-29.624,4.248c-1.8545,0.3447-3.5479,3.3691-4.6797,5.4961
	c-7.0811,13.3008-12.9395,27.3809-21.1631,39.918c-16.333,24.9014-38.2012,44.4727-63.3467,60.3633
	c-30.3516,19.1816-63.21,32.2715-98.1768,40.165c-8.4277,1.9023-16.8994,3.627-25.3877,5.2422
	c-2.8076,0.5342-5.7295,0.4658-8.7422-0.2471c9.1309-4.5098,18.3896-8.7822,27.3711-13.5732
	c31.0859-16.5791,58.8984-37.3252,81.0215-65.0586c13.3887-16.7822,23.9277-35.125,29.4287-56.0771
	c0.2471-0.9395,0.4102-1.9004,0.8848-4.1348c-61.3652,9.0098-122.0996,17.9268-182.834,26.8447
	c-0.1895-0.541-0.3789-1.0811-0.5684-1.6221c2.166-1.1152,4.2617-2.4043,6.5078-3.3223
	c39.8174-16.2891,77.6465-36.3711,113.1025-60.6895c54.8965-37.6528,102.3242-82.9292,138.4746-139.2422
	c7.0557-10.9897,12.8506-22.79,19.2285-34.2139C280.4592,92.3989,281.1838,91.1372,281.9006,89.8721z"/>
<path style="&st0;" d="M557.4026,383.9707c-1.1709,0.1133-2.4092,0.5352-3.5039,0.2969
	c-57.1543-12.3955-113.7451-10.4336-169.4707,7.4893c-35.4512,11.4023-68.0098,28.4463-96.4893,52.7959
	c-1.2588,1.0771-3.208,1.9043-4.8369,1.9082c-40.4824,0.1045-80.9668,0.082-122.667,0.082c2.3408-1.8662,3.8184-3.2178,5.46-4.3262
	c43.6484-29.4551,90.1611-53.0371,140.7363-68.1621c48.1621-14.4023,97.3408-20.25,147.5088-16.2754
	c33.3252,2.6406,65.7852,9.5215,96.9668,21.8486c2.2295,0.8809,4.2793,2.208,6.4141,3.3291
	C557.4807,383.293,557.4417,383.6318,557.4026,383.9707z"/>
<path style="&st0;" d="M472.4573,239.7632c-2.3213,0-4.6455,0-6.9678,0c-28.6572,0.002-57.3164,0.106-85.9736-0.1294
	c-3.3652-0.0278-7.2822-1.1279-9.9844-3.0669c-27.3027-19.5879-45.8008-45.939-57.8252-77.0142
	c-3.04-7.8564-5.7383-15.917-7.7266-24.0938c-2.3809-9.7959-3.832-19.8188-4.5693-30.248c2.6016,3.0723,5.3057,6.064,7.7881,9.229
	c27.8389,35.4902,59.7949,66.6973,97.0762,92.1763c19.0195,12.998,39.4316,23.4868,61.5879,30.252
	c2.1787,0.665,4.4141,1.1348,6.623,1.6948C472.4758,238.9629,472.4661,239.3633,472.4573,239.7632z"/>
<path style="&st0;" d="M438.0364,57.417c-3.5215,10.2158-6.3467,20.7412-10.7051,30.5869
	c-10.9404,24.7183-26.9922,46.0381-45.4775,65.6279c-2.5771,2.73-4.5488,3.165-7.415,0.6299
	c-11.7988-10.4336-23.6865-20.7656-36.5537-32.0205c2.2627-0.3965,2.9609-0.6582,3.6406-0.6172
	c21.6533,1.2959,39.4023-7.937,55.5654-20.9761c13.9102-11.2222,25.7236-24.4678,35.8965-39.168
	c1.1074-1.6011,2.3076-3.1372,3.4639-4.7041C436.9797,56.9902,437.5081,57.2031,438.0364,57.417z"/>
<path style="&st0;" d="M443.6526,11.4053c-0.6582,2.292-1.3154,4.5825-1.9746,6.8726c-1.2695-5.418-2.5371-10.834-3.8066-16.25
	c0.3398-0.1348,0.6797-0.27,1.0195-0.4048C440.4788,4.8838,442.0657,8.145,443.6526,11.4053z"/>
<g>
	<path style="&st0;" d="M1565.1003,89.9697c-17.8081,9.8311-16.4287,23.7983-16.1289,37.6533
		c0.4604,21.2949-0.0273,42.6182,0.8296,63.8896c0.4478,11.0254-3.9063,15.7773-14.4707,15.9053
		c-1.5713,0.02-3.1255,0.6631-4.7104,0.8262c-22.9478,2.3896-25.2905,0.5249-27.4624-22.4541c-21.4863,0-43.0625,0-65.4521,0
		c0,30.6592,0.3525,60.8247-0.3047,90.9736c-0.125,5.7891-3.4385,15.918-6.5801,16.4541
		c-12.1602,2.0732-24.8564,1.292-37.3135,0.7031c-0.7588-0.0371-1.6338-7.6172-1.6504-11.6904
		c-0.1387-31.8447-0.0762-63.6885-0.0762-96.3745c-21.1533,0-41.6758,0-62.1494,0c-3.2197,19.4458-24.1455,30.4238-41.8672,21.647
		c-2.8652-1.4199-5.5684-6.481-5.5635-9.8521c0.0498-20.7407,1.1172-41.4761,1.4102-62.2178
		c0.291-20.5884,0.0645-41.1821,0.0645-62.9893c14.0508,3.3989,28.7578,6.96,44.1387,10.6831c0,9.3838,0,17.811,0,26.186
		c21.2324-6.9541,41.6396-13.6382,63.4238-20.7749c0-21.2109,0-43.7529,0-68.8872c19.2324,2.7529,37.6846,5.3892,61.0518,8.729
		c-23.1465,16.2959-13.3633,35.48-15.6074,54.2871c22.8955-1.1919,44.4766-2.292,66.0444-3.4961
		c1.4951-0.082,3.0161-0.793,4.394-1.4741c6.8428-3.3687,15.1567-11.1519,20.1475-9.4009
		C1539.7961,72.6958,1550.8103,81.395,1565.1003,89.9697z M1503.427,87.9331c-22.6084,1.4419-44.0947,2.811-66.0127,4.2056
		c0,28.8354,0,56.2603,0,84.4863c22.2168,0,43.7266,0,66.0127,0C1503.427,147.5479,1503.427,119.041,1503.427,87.9331z
		 M1391.6877,97.5c-19.4238,7.0171-37.3457,13.085-54.8633,20.145c-3.6719,1.4771-8.166,6.4678-8.3643,10.0591
		c-0.9004,16.2017-0.3955,32.4829-0.3955,48.7061c22.6074,0,43.0391,0,63.623,0C1391.6877,150.583,1391.6877,125.772,1391.6877,97.5
		z"/>
</g>
<g>
	<path style="&st0;" d="M1122.7073,231.3101c5.4219,6.5088,10.8418,13.0171,18.2744,21.9438c-30.9941,0-59.2793,0-88.3809,0
		c0,9.4209,0,17.1055,0,28.4902c21.1045,0,42.3418,1.4414,63.1865-0.793c7.1406-0.7686,14.1826-10.0078,19.6855-16.6865
		c7.5449-9.1572,14.1348-9.5039,22.4316-1.5586c7.8057,7.4756,16.0557,14.4814,24.1152,21.6924
		c-0.6455,1.5801-1.291,3.1602-1.9336,4.7393c-5.4512,0-10.8984-0.0107-16.3457,0.001
		c-84.1533,0.2021-168.3125,0.4648-252.4697,0.5176c-8.6553,0.0059-20.8955,7.0137-22.9814-9.0586c39.5703,0,78.7178,0,118.7285,0
		c0-7.7646,0-16.0645,0-23.8652c-26.1113,0-51.9189,0.4238-77.6924-0.3184c-5.9648-0.1719-11.8066-4.3379-17.7051-6.665
		c0.5879-1.1919,1.1729-2.3799,1.7627-3.5703c31.1895,0,62.3789,0,94.0273,0c0-5.4058,0-10.5996,0-18.3857
		c-22.9141,2.937-45.3975,5.8149-71.8379,9.2021c-2.4941-8.5684-6.459-22.188-10.9873-37.749
		c12.8008,1.3569,23.3408,1.8838,33.6504,3.7017c15.4619,2.7231,19.792-5.3726,20.1787-17.9829
		c-14.5313-6.8398-33.1592,6.2173-48.0547-10.5171c43.6221,0,83.8877,0.0122,124.1455-0.0039
		c17.8105-0.0059,18.8447-0.6128,30.8867-17.9722c-52.583,0-104.4736,0-157.1465,0c-0.918,5.6445-1.6045,11.9185-2.9922,18.0352
		c-3.7832,16.6382-19.8506,24.9023-35.7051,18.6143c-11.5449-4.5801-12.7676-19.9702-2.7549-28.8071
		c10.9883-9.7061,21.4697-19.9878,33.4902-31.2529c1.1191,2.9409,3.3496,8.7749,5.8447,15.3188
		c64.1299,0,128.5537,0.2412,192.9736-0.4219c5.6221-0.0591,11.1855-6.0591,16.7744-9.2988l-0.2998,0.1826
		c16.125-8.9326,37.7686,1.0903,43.959,18.8042c-16.2861,11.8179-32.0928,23.2881-44.5146,32.3008
		c3.2881,12.0991,8.2666,22.0532,7.4844,31.5332c-0.3252,3.9121-13.0029,6.8062-20.0693,10.1641
		c-0.793-0.7891-1.585-1.5791-2.3789-2.3691c-0.2305,0.4063-0.4678,0.8101-0.6992,1.2183
		C1120.4758,230.7646,1121.594,231.0371,1122.7073,231.3101z M1112.51,225.582c1.4014,0.5986,2.8027,1.1978,4.207,1.7969
		c-0.4004-1.207-0.8008-2.417-1.1953-3.624c-4.3037-5.5562-3.8203-16.4888-16.0332-12.9248
		c-15.5693,4.5449-31.3691,8.2837-46.9004,12.3267c0,8.1714,0,15.3442,0,22.2563c17.6006,4.4688,31.4434,1.4297,42.8018-12.9673
		C1098.6917,228.2598,1106.6741,227.7681,1112.51,225.582z M1123.6389,176.9487c-0.5957,1.4111-1.1914,2.8223-1.7852,4.2334
		c-43.4336,5.0869-90.8555-11.2012-126.4785,22.0708c31.5068,0,65.3516,0,102.5957,0
		c-7.9922-6.3418-12.8477-10.1938-17.7031-14.0439c0.5742-1.0439,1.1406-2.0908,1.7168-3.1372
		c14.0859,1.2383,28.1729,2.4761,44.083,3.873c1.1279-11.6519,2.1865-22.5879,3.2471-33.5347c-12.2334,0-21.7959,0-32.2793,0
		C1106.6409,163.8301,1115.1428,170.3887,1123.6389,176.9487z"/>
	<path style="&st0;" d="M1135.8752,138.6592c-3.2012,0.1587-6.4102,0.2749-9.6143,0.4907
		c-12.8535,0.8701-26.7197,9.249-37.4824-5.689c-1.1943-1.6611-6.0469-0.897-9.207-0.9028
		c-31.9316-0.0649-63.8643-0.27-95.7891,0.187c-4.2188,0.0586-8.2695,3.9209-12.6094,5.4141
		c-4.8809,1.6777-9.9414,3.4717-15.0244,3.8228c-25.4785,1.7603-25.4883,1.6001-25.4785-23.2891c0.002-9.4409,0-18.8789,0-29.21
		c57.8701,11.3818,115.4102,15.752,172.6064,2.2988c0.0391-2.0498,0.0771-4.0996,0.1172-6.1499
		c-3.7041-0.3491-7.4121-1.0371-11.1123-0.9961c-54.2432,0.5933-108.4893,1.4521-162.7354,1.6353
		c-4.4717,0.0161-8.9551-4.4209-13.4336-6.79c0.6973-1.0952,1.3896-2.1909,2.0811-3.2891c29.0234,0,58.0439,0,88.1201,0
		c0-5.1987,0-11.1802,0-17.2642c-32.5234,0-64.7773,0.3042-97.0146-0.2837c-5.7373-0.105-11.4043-3.918-17.1045-6.022
		c0.5254-1.46,1.043-2.9224,1.5684-4.3853c37.4316,0,74.8662,0,112.9502,0c0-7.5278,0-15.2197,0-25.1987
		c18.5537,2.7427,36.2871,5.3657,57.8359,8.5508c-7.5859,6.5781-11.5264,9.998-15.4717,13.418
		c0.4951,1.2749,0.9912,2.5513,1.4863,3.8281c30.2871-3.1362,64.9336,14.4399,88.3086-24.4531
		c12.7627,10.1699,24.0645,19.1763,35.3623,28.1802c-0.3564,1.3809-0.7148,2.7627-1.0723,4.1411c-15.8018,0-31.5957,0-47.3926,0
		c-0.3262,1.2397-0.6494,2.4785-0.9766,3.7158c8.3086,6.603,16.6113,13.2041,28.5908,22.7251c-15.7188,0-26.8604,0-38.002,0
		c-0.332,1.0391-0.6699,2.0786-1.001,3.1167c8.9336,5.2612,17.8672,10.521,28.2949,16.6602
		c-13.0186,10.8311-13.25,22.9429-7.1123,35.9312C1135.5754,138.8418,1135.8752,138.6592,1135.8752,138.6592z M972.7356,123.4438
		c39.9736,0,78.4834,0,117.8516,0c-0.2842-6.1431-0.5186-11.1738-0.7422-16.0747c-39.79,0-78.3486,0-117.1084,0
		C972.7356,113.0078,972.7356,117.71,972.7356,123.4438z M1050.2688,77.3159c22.252-0.7031,45.8311,7.0571,60.5938-19.1519
		c-20.4229,0-40.21,0-60.5938,0C1050.2688,64.6069,1050.2688,70.209,1050.2688,77.3159z"/>
</g>
<g>
	<path style="&st0;" d="M1952.2239,135.9043c-17.5361,8.2163-17.8594,19.979-17.3115,32.6973
		c0.668,15.4028,0.4609,30.8657,0.0801,46.2871c-0.5166,21.0859-31.0049,44.125-51.3936,38.9375
		c-2.1016-0.5361-4.3926-2.7617-5.3994-4.7935c-11.8975-23.9443-11.8389-23.9741-30.2031-37.272c15.9131,0,28.498,0,42.0713,0
		c0-25.6362,0-48.6772,0-72.3452c-17.0449,0-33.873,0-50.8994,0c0,44.749-0.0137,88.7271,0.001,132.7075
		c0.0156,22.4385-0.0537,22.6406-23.0439,23.7988c-7.375,0.3711-14.7773,0.0596-24.3984,0.0596c0-52.4229,0-104.1572,0-156.585
		c-17.4727,0-32.6963,0-48.4766,0c0,33.8159,0.3047,67.1309-0.2578,100.4351c-0.1104,6.647-2.5469,18.3608-5.6143,18.9546
		c-12.1318,2.3545-24.9443,1.4063-37.4814,0.9951c-0.9551-0.0313-2.4795-5.4238-2.4912-8.332
		c-0.1602-44.647-0.1113-89.2939-0.1113-133.0347c30.3164,4.8101,60.6016,9.6177,92.6309,14.6978c0-19.1001,0-33.6348,0-50.3018
		c20.7441,3.4189,40.6592,6.7007,57.8594,9.5361c-4.5742,12.6978-8.4307,23.4126-13.2441,36.7837
		c28.0723-0.6602,52.4941,6.9321,71.4121-14.6118c1.875-2.1372,8.3594-2.7051,11.1074-1.1602
		C1927.9836,119.5166,1938.2727,126.7983,1952.2239,135.9043z"/>
	<path style="&st0;" d="M1926.7043,38.1675c13.9453,12.0308,27.0361,23.3281,40.1328,34.626
		c-0.7734,1.3579-1.5547,2.7183-2.3301,4.0781c-4.5293,0.3491-9.0625,0.9839-13.6006,1.0059
		c-90.9141,0.4419-181.8369,0.9331-272.7568,0.8589c-4.8086-0.0039-9.6152-4.9097-12.4014-10.7148c45.917,0,91.835,0,141.1445,0
		c-13.3955-16.6748-25.5439-31.7998-37.4043-46.561c13.4961-7.624,55.1582-1.5981,66.3018,11.8081
		c9.5771,11.5171,6.3867,23.2646-2.4805,35.96c21.2578,0,40.7734,0.5869,60.2041-0.4238c4.7256-0.2451,9.7256-5.1831,13.6338-8.9624
		C1913.5569,53.6357,1919.1829,46.6084,1926.7043,38.1675z"/>
</g>
<path style="&st0;" d="M2242.9094,171.7563c6.248,19.7295,16.0127,37.0146,29.2969,51.8555
	c13.4766,15.042,25.4883,22.5586,36.0352,22.5586c7.4199,0,14.7441-15.3306,21.9727-45.9961l5.8594,1.1719
	c-1.7578,25.7813-2.6367,41.7021-2.6367,47.7539c0,4.2964,2.6367,10.0601,7.9102,17.2886
	c2.5361,3.3184,3.8086,7.0313,3.8086,11.1328c0,11.7188-7.7178,17.5781-23.1445,17.5781c-27.5391,0-52.4414-12.3047-74.707-36.9141
	c-22.0732-24.6128-37.1113-53.3237-45.1172-86.1362h-58.3008v62.9883c18.3564-2.147,41.501-6.0518,69.4336-11.7188l1.4648,4.1016
	c-35.3535,25.7827-72.0703,43.8472-110.1563,54.2026c-0.5859,0.1914-1.4648,3.1211-2.6367,8.7891
	c-0.7832,3.1211-2.248,4.6875-4.3945,4.6875c-2.7373,0-11.0371-18.5586-24.9023-55.6675c2.1465,0,4.8799,0,8.2031,0
	c2.5361,0,4.9805,0,7.3242,0c5.0762-0.1924,10.2539-0.4854,15.5273-0.8789V89.7251c0-28.9033-0.6865-48.729-2.0508-59.4727
	c19.5283,4.8843,34.373,9.1826,44.5313,12.8906h123.6328c13.4766-11.3252,20.9932-16.9922,22.5586-16.9922
	c1.9502,0,7.6172,3.2227,16.9922,9.668c9.375,6.6421,14.0625,10.9404,14.0625,12.8906c0,1.5654-1.0762,3.1265-3.2227,4.6875
	c-5.2734,3.5156-7.9102,5.5664-7.9102,6.1523v18.457c0,2.3438,0.1924,15.5273,0.5859,39.5508c0,5.667-8.7891,8.4961-26.3672,8.4961
	c-9.1826,0-13.7695-1.7578-13.7695-5.2734l0.293-9.668h-41.6016c0.7783,17.189,3.9043,34.7671,9.375,52.7344h41.3086
	c15.0371-19.1392,23.5332-28.7109,25.4883-28.7109c2.1465,0,8.5918,4.9805,19.3359,14.9414
	c10.5469,10.1577,15.8203,16.1133,15.8203,17.8711c0,2.5405-1.1719,3.8086-3.5156,3.8086H2242.9094z M2143.886,50.1743v53.6133
	h129.4922V50.1743H2143.886z M2143.886,111.1118v52.7344h56.25c-3.5156-15.6235-6.1523-33.2017-7.9102-52.7344H2143.886z"/>
<path style="&st0;" d="M2603.928,140.4087h-31.6406v86.1328c13.2793-2.3438,27.0488-5.7588,41.3086-10.2539l1.7578,5.2734
	c-39.0654,28.7114-80.7637,48.6362-125.0977,59.769c-0.3936,0.1914-0.8789,2.8281-1.4648,7.9102
	c-0.3936,2.9297-1.5654,4.3945-3.5156,4.3945c-3.127,0-10.2539-17.5781-21.3867-52.7378c8.2031,0,15.1338-0.3892,20.8008-1.1719
	v-80.8594c0-22.8516-0.9795-41.208-2.9297-55.0781c29.2969,4.4951,43.9453,8.0107,43.9453,10.5469
	c0,1.5654-0.9795,2.7373-2.9297,3.5156c-3.7129,1.7578-5.5664,3.1265-5.5664,4.1016v113.9648
	c8.3955-1.1719,14.8408-2.147,19.3359-2.9297V57.2056h-19.043c-5.4707,0-11.2334,0.1006-17.2852,0.293c-1.3691,0-2.3438,0-2.9297,0
	c-9.7686,0.1968-16.8965,0.6865-21.3867,1.4648l-5.8594-12.3047c13.2793,1.9546,31.4434,2.9297,54.4922,2.9297h33.6914
	c13.2793-18.3564,20.9932-27.5391,23.1445-27.5391c2.5361,0,8.6885,4.7881,18.457,14.3555
	c9.7637,9.7686,14.6484,15.6279,14.6484,17.5781c0,2.1514-0.8789,3.2227-2.6367,3.2227h-39.5508v75.8789
	c7.2236-19.5283,11.6182-29.2969,13.1836-29.2969c2.5361,0,9.375,9.8647,20.5078,29.5898
	c10.3496-36.1313,15.5273-74.2173,15.5273-114.2578c15.2344,3.1265,27.832,5.8594,37.793,8.2031
	c9.7637,2.1514,14.6484,4.2983,14.6484,6.4453c0,1.7578-1.2725,3.0303-3.8086,3.8086c-4.4951,1.7578-6.7383,2.8335-6.7383,3.2227
	c-3.9092,17.3857-8.6934,33.3984-14.3555,48.0469h30.4688c11.9111-17.7705,18.8457-26.6602,20.8008-26.6602
	c2.1465,0,8.3955,4.6875,18.75,14.0625c10.5469,9.1826,15.8203,14.749,15.8203,16.6992c0,1.9546-0.9795,2.9297-2.9297,2.9297
	h-15.8203c-1.7578,21.2905-6.4453,43.6523-14.0625,67.0898c-7.6172,23.6343-16.0176,41.6016-25.1953,53.9063
	c0,1.5654,6.4453,6.4453,19.3359,14.6484c12.6934,8.2031,27.0488,15.1382,43.0664,20.8022l-0.5859,4.1035
	c-7.6172,0.7773-13.1836,10.2539-16.6992,28.418c-1.3691,6.248-3.4199,9.375-6.1523,9.375c-4.4951,0-14.0625-5.9609-28.7109-17.8711
	c-14.6484-12.1133-25.4883-23.6367-32.5195-34.5737c-25.1953,24.2183-57.1289,41.5034-95.8008,51.8589l-2.9297-4.3945
	c36.9141-18.1641,65.332-42.5801,85.2539-73.2456c-8.5967-18.1641-13.7695-44.9204-15.5273-80.2734
	c0,0.7827-3.5156,5.667-10.5469,14.6484c-7.0313,9.1826-12.7949,15.7241-17.2852,19.6289l-4.3945-3.2227
	C2597.0891,159.1587,2600.6047,150.3696,2603.928,140.4087z M2676.5842,96.1704h-30.1758
	c-5.2734,11.9155-10.0615,21.8765-14.3555,29.8828c0,0.3936,2.3438,9.1826,7.0313,26.3672
	c4.6875,17.189,9.9609,30.3726,15.8203,39.5508C2667.9875,165.604,2675.2151,133.6704,2676.5842,96.1704z"/>
<path style="&st0;" d="M3081.7239,141.5806h-156.7383c-1.3691,71.4844-21.584,122.2671-60.6445,152.3472l-4.3945-2.9297
	c18.75-42.9736,28.125-102.7349,28.125-179.3003V75.3696c0-20.7002-0.8789-36.6211-2.6367-47.7539
	c14.0625,3.3232,28.8066,8.0107,44.2383,14.0625h130.957c12.1074-9.9609,19.043-14.9414,20.8008-14.9414
	c1.9502,0,7.3242,2.8335,16.1133,8.4961c8.7891,5.8594,13.1836,9.7686,13.1836,11.7188c0,1.7578-0.5859,3.2227-1.7578,4.3945
	c-5.667,4.2983-8.4961,7.228-8.4961,8.7891v12.5977c0,8.0107,0.3887,17.189,1.1719,27.5391c0,0.1968,0,0.4897,0,0.8789
	c0,5.667-8.8896,8.4961-26.6602,8.4961c-7.8145,0-11.7188-1.7578-11.7188-5.2734v-5.2734h-137.4023
	c-0.1973,5.2734-0.293,11.4258-0.293,18.457c0,7.228-0.1006,12.5977-0.293,16.1133h152.6367
	c11.3252-10.1533,18.2598-15.2344,20.8008-15.2344c1.7578,0,7.127,3.0303,16.1133,9.082
	c9.1777,5.8594,13.7695,9.8647,13.7695,12.0117c0,1.9546-0.5859,3.3232-1.7578,4.1016c-5.667,4.1016-8.4961,7.4248-8.4961,9.9609
	c0,0.1968,0,0.6865,0,1.4648c0,0.7827,0,1.4648,0,2.0508c0,37.3076-2.248,69.5342-6.7383,96.6821
	c-4.2988,26.9541-20.0225,40.4307-47.168,40.4307c-3.5156,0-5.5664-2.3438-6.1523-7.0313
	c-1.3691-10.3555-3.7129-17.1895-7.0313-20.5078c-3.127-3.5156-12.5977-7.6172-28.418-12.3057l0.8789-5.5688
	c16.7949,1.9507,31.1504,2.9312,43.0664,2.9312c5.2734,0,8.5918-5.6641,9.9609-16.9937
	c1.5605-11.1328,2.7324-24.5088,3.5156-40.1367c0.7783-15.6235,1.1719-31.7368,1.1719-48.3398
	C3081.4309,144.3179,3081.5266,142.7524,3081.7239,141.5806z M3063.2668,92.0688V49.8813h-137.4023v42.1875H3063.2668z
	 M3054.1848,234.1587v0.293c0,5.667-9.082,8.4961-27.2461,8.4961c-6.6426,0-9.9609-1.7578-9.9609-5.2734v-5.5664h-43.6523v10.2539
	c0,5.4658-8.6934,8.2036-26.0742,8.2036c-7.6172,0-11.4258-1.7583-11.4258-5.2739v-0.293
	c0.9746-14.4517,1.4648-25.0947,1.4648-31.9336v-22.2656c0-15.4268-0.7832-27.3423-2.3438-35.7422
	c14.2549,3.1265,27.7314,7.0313,40.4297,11.7188h38.3789c10.7393-9.5674,17.2852-14.3555,19.6289-14.3555
	c1.9502,0,7.127,2.7373,15.5273,8.2031c8.3955,5.667,12.5977,9.5718,12.5977,11.7188c0,1.5654-0.5859,2.9297-1.7578,4.1016
	c-4.8848,3.7124-7.3242,6.2529-7.3242,7.6172v20.2148C3052.427,212.479,3053.0129,222.4399,3054.1848,234.1587z M3016.9778,174.686
	h-43.6523v50.0977h43.6523V174.686z"/>
<g>
	<path style="&st0;" d="M970.9797,422.3145c-1.3413,10.3516-5.02,18.3789-11.0352,24.082
		c-6.0166,5.7041-13.7876,8.5547-23.3145,8.5547c-11.3975,0-20.5889-4.1211-27.5752-12.3633
		c-6.9863-8.2412-10.4795-19.0811-10.4795-32.5195c0-13.9834,3.5547-25.1367,10.665-33.457
		c7.1094-8.3203,16.627-12.4805,28.5537-12.4805c9.4561,0,17.1753,2.7539,23.1558,8.2617
		c5.981,5.5078,9.3945,13.0283,10.2412,22.5586h-18.7358c-0.918-4.1396-2.6558-7.2559-5.2134-9.3457
		c-2.5586-2.0889-5.9194-3.1348-10.0825-3.1348c-5.5757,0-9.9858,2.4414-13.2319,7.3242
		c-3.2466,4.8838-4.8691,11.5635-4.8691,20.0391c0,8.4375,1.5347,14.9912,4.6045,19.6582c3.0698,4.668,7.3916,7.002,12.9673,7.002
		c4.4805,0,8.0713-1.21,10.7705-3.6328c2.6992-2.4219,4.3838-5.9375,5.0547-10.5469H970.9797z"/>
	<path style="&st0;" d="M983.0471,452.5488v-86.3086h19.9004v86.3086H983.0471z"/>
	<path style="&st0;" d="M1036.5564,452.5488l-26.7813-86.3086h21.1709l10.9561,44.3555c0.1758,0.7422,0.4761,1.9541,0.8994,3.6328
		c1.3408,5.3125,2.3638,9.7656,3.0698,13.3594c0.3882-1.7578,0.8643-3.8281,1.4292-6.2109c0.564-2.3818,1.3579-5.5078,2.3818-9.375
		l11.4849-45.7617h21.0122l-26.9399,86.3086H1036.5564z"/>
	<path style="&st0;" d="M1089.1658,452.5488v-86.3086h19.9004v86.3086H1089.1658z"/>
	<path style="&st0;" d="M1125.3679,452.5488v-86.3086h20.0063v67.6172h37.7368v18.6914H1125.3679z"/>
	<path style="&st0;" d="M1243.6594,366.2402h21.8062l27.522,86.3086h-21.4355l-4.7632-15.8203h-26.0405l-4.4458,15.8203h-20.6943
		L1243.6594,366.2402z M1245.512,418.8574h17.0425l-8.6802-29.7656L1245.512,418.8574z"/>
	<path style="&st0;" d="M1300.7678,452.5488v-86.3086h55.9438v17.9297h-36.0962v17.8711h31.333v17.8711h-31.333v32.6367H1300.7678z"
		/>
	<path style="&st0;" d="M1366.8738,452.5488v-86.3086h55.9438v17.9297h-36.0962v17.8711h31.333v17.8711h-31.333v32.6367H1366.8738z"
		/>
	<path style="&st0;" d="M1448.8577,366.2402h21.8062l27.522,86.3086h-21.4355l-4.7632-15.8203h-26.0405l-4.4458,15.8203h-20.6943
		L1448.8577,366.2402z M1450.7102,418.8574h17.0425l-8.6802-29.7656L1450.7102,418.8574z"/>
	<path style="&st0;" d="M1506.3367,452.5488v-86.3086h19.9004v86.3086H1506.3367z"/>
	<path style="&st0;" d="M1541.9558,452.5488v-86.3086h37.314c9.8799,0,17.1572,1.9541,21.833,5.8594
		c4.6738,3.9063,7.0117,9.9609,7.0117,18.1641c0,4.8438-0.9961,8.9941-2.9902,12.4512s-5.0898,6.3574-9.2891,8.7012
		c3.4219,1.4453,5.8398,3.4082,7.252,5.8887c1.4102,2.4814,2.2227,6.8467,2.4336,13.0957c0.1074,1.7578,0.2129,4.1221,0.3184,7.0898
		c0.2461,6.9531,1.3223,10.9775,3.2285,12.0703v2.9883h-20.9063c-1.0234-3.0469-1.6055-7.2266-1.7461-12.5391
		c-0.1426-5.3115-0.2832-8.6514-0.4238-10.0195c-0.3184-3.3594-1.3418-5.8203-3.0698-7.3828
		c-1.7295-1.5615-4.3228-2.3438-7.7803-2.3438h-13.3379v32.2852H1541.9558z M1561.8035,403.2129h14.8726
		c4.0225,0,6.9775-0.8203,8.8662-2.4609c1.8867-1.6406,2.8301-4.2568,2.8301-7.8516c0-3.1641-0.918-5.5166-2.752-7.0605
		c-1.8345-1.543-4.6396-2.3145-8.415-2.3145h-15.4019V403.2129z"/>
	<path style="&st0;" d="M1617.8538,423.8965h19.1592c0.1406,4.9219,1.4463,8.623,3.917,11.1035
		c2.4688,2.4814,6.0859,3.7207,10.8496,3.7207c4.0576,0,7.1982-0.7412,9.4209-2.2266c2.2227-1.4844,3.335-3.5742,3.335-6.2695
		c0-1.3672-0.2646-2.5869-0.7939-3.6621c-0.5293-1.0742-1.2705-1.8838-2.2236-2.4316c-1.4473-0.8584-4.9932-2.2061-10.6377-4.043
		c-5.6465-1.8359-10.4092-3.6123-14.291-5.332c-5.6094-2.4609-9.8701-5.7129-12.7813-9.7559s-4.3662-8.7598-4.3662-14.1504
		c0-8.2412,2.7959-14.7949,8.3887-19.6582c5.5918-4.8633,13.1699-7.2949,22.7324-7.2949c9.3848,0,16.8301,2.5586,22.335,7.6758
		c5.5039,5.1182,8.2568,12.0322,8.2568,20.7422h-18.79c-0.4229-4.0225-1.7021-6.9922-3.8369-8.9063
		c-2.1348-1.9131-5.2129-2.8711-9.2354-2.8711c-3.2109,0-5.8223,0.7324-7.833,2.1973c-2.0117,1.4648-3.0176,3.3311-3.0176,5.5957
		c0,3.8291,4.7813,7.4414,14.3438,10.8398c1.7285,0.625,3.0518,1.0938,3.9697,1.4063l0.7939,0.293
		c9.8789,3.5547,16.0537,6.4258,18.5244,8.6133c2.5049,2.2656,4.4102,4.9316,5.7158,7.998c1.3047,3.0674,1.958,6.4746,1.958,10.2246
		c0,8.5938-2.9727,15.2842-8.918,20.0684c-5.9463,4.7842-14.2822,7.1777-25.0078,7.1777c-10.1279,0-17.8369-2.5684-23.1289-7.7051
		C1621.3997,442.1104,1618.4534,434.3262,1617.8538,423.8965z"/>
	<path style="&st0;" d="M1727.5188,452.5488v-86.3086h37.8428c9.0674,0,15.7627,1.8076,20.0859,5.4199
		c4.3213,3.6133,6.4834,9.1699,6.4834,16.6699c0,4.6494-0.9619,8.4873-2.8848,11.5137c-1.9238,3.0273-4.8613,5.3613-8.8125,7.002
		c4.5166,1.2891,7.9736,3.6035,10.374,6.9434c2.3984,3.3398,3.5986,7.4912,3.5986,12.4512c0,4.8438-0.9971,9.2197-2.9902,13.125
		c-1.9941,3.9063-4.79,6.9346-8.3887,9.082c-2.4346,1.4854-5.3818,2.54-8.8389,3.1641c-3.459,0.625-8.7861,0.9375-15.9844,0.9375
		H1727.5188z M1746.6252,399.9902h16.0371c3.3867,0,5.9092-0.6934,7.5684-2.0801c1.6582-1.3857,2.4873-3.4863,2.4873-6.2988
		c0-2.6162-0.7764-4.5996-2.3291-5.9473s-3.8457-2.0215-6.8799-2.0215h-16.8838V399.9902z M1746.6252,435.3809h15.084
		c4.7637,0,8.0977-0.7324,10.0029-2.1973s2.8584-3.9346,2.8584-7.4121c0-3.125-0.9092-5.4785-2.7256-7.0605
		c-1.8184-1.582-4.5254-2.373-8.124-2.373h-17.0957V435.3809z"/>
	<path style="&st0;" d="M1806.009,366.2402h19.6357v53.9063c0,5.9385,1.0137,10.166,3.043,12.6855
		c2.0283,2.5195,5.3896,3.7793,10.083,3.7793c4.6221,0,7.9385-1.2598,9.9502-3.7793c2.0107-2.5195,3.0166-6.7471,3.0166-12.6855
		v-53.9063h19.8477v51.2695c0,7.2275-0.6348,12.9883-1.9053,17.2852c-1.2705,4.2979-3.3701,7.9307-6.2988,10.8984
		c-3.0693,3.0859-6.6416,5.4004-10.7168,6.9434c-4.0762,1.543-8.6719,2.3145-13.7881,2.3145s-9.7119-0.7715-13.7871-2.3145
		s-7.6484-3.8574-10.7178-6.9434c-2.9639-3.0078-5.0996-6.6699-6.4043-10.9863c-1.3057-4.3154-1.958-10.0488-1.958-17.1973V366.2402
		z"/>
	<path style="&st0;" d="M1886.2991,452.5488v-86.3086h37.3135c9.8799,0,17.1572,1.9541,21.833,5.8594
		c4.6748,3.9063,7.0127,9.9609,7.0127,18.1641c0,4.8438-0.9971,8.9941-2.9902,12.4512c-1.9941,3.457-5.0908,6.3574-9.2891,8.7012
		c3.4219,1.4453,5.8398,3.4082,7.251,5.8887c1.4111,2.4814,2.2227,6.8467,2.4346,13.0957c0.1064,1.7578,0.2119,4.1221,0.3174,7.0898
		c0.2471,6.9531,1.3232,10.9775,3.2285,12.0703v2.9883h-20.9063c-1.0234-3.0469-1.6055-7.2266-1.7461-12.5391
		c-0.1416-5.3115-0.2832-8.6514-0.4238-10.0195c-0.3174-3.3594-1.3408-5.8203-3.0693-7.3828
		c-1.7295-1.5615-4.3232-2.3438-7.7803-2.3438h-13.3379v32.2852H1886.2991z M1906.1467,403.2129h14.873
		c4.0225,0,6.9766-0.8203,8.8652-2.4609c1.8867-1.6406,2.8311-4.2568,2.8311-7.8516c0-3.1641-0.918-5.5166-2.752-7.0605
		c-1.835-1.543-4.6406-2.3145-8.415-2.3145h-15.4023V403.2129z"/>
	<path style="&st0;" d="M1965.9553,452.5488v-86.3086h59.2246v17.6953h-39.2715v15.2344h35.8848v17.2852h-35.8848v18.457h40.542
		v17.6367H1965.9553z"/>
	<path style="&st0;" d="M2058.7356,366.2402h21.8057l27.5215,86.3086h-21.4346l-4.7637-15.8203h-26.04l-4.4463,15.8203h-20.6943
		L2058.7356,366.2402z M2060.5872,418.8574h17.043l-8.6797-29.7656L2060.5872,418.8574z"/>
	<path style="&st0;" d="M2113.304,366.2402h19.6357v53.9063c0,5.9385,1.0137,10.166,3.043,12.6855
		c2.0283,2.5195,5.3896,3.7793,10.083,3.7793c4.6221,0,7.9385-1.2598,9.9502-3.7793c2.0107-2.5195,3.0166-6.7471,3.0166-12.6855
		v-53.9063h19.8477v51.2695c0,7.2275-0.6348,12.9883-1.9053,17.2852c-1.2705,4.2979-3.3701,7.9307-6.2988,10.8984
		c-3.0693,3.0859-6.6416,5.4004-10.7168,6.9434c-4.0762,1.543-8.6719,2.3145-13.7881,2.3145s-9.7119-0.7715-13.7871-2.3145
		s-7.6484-3.8574-10.7178-6.9434c-2.9639-3.0078-5.0996-6.6699-6.4043-10.9863c-1.3057-4.3154-1.958-10.0488-1.958-17.1973V366.2402
		z"/>
	<path style="&st0;" d="M2188.5657,452.5488v-20.625h19.4766v15c0,7.8125-1.6406,13.8477-4.9219,18.1055
		c-3.2813,4.2568-8.2393,6.7764-14.8721,7.5586v-7.207c3.5986-0.9766,6.2451-2.4521,7.9385-4.4238
		c1.6943-1.9727,2.541-4.5801,2.541-7.8223v-0.5859H2188.5657z"/>
	<path style="&st0;" d="M2269.385,452.5488v-68.7891h-22.335v-17.5195h64.623v17.5195h-22.335v68.7891H2269.385z"/>
	<path style="&st0;" d="M2336.9729,366.2402h21.8057l27.5215,86.3086h-21.4346l-4.7637-15.8203h-26.04l-4.4463,15.8203h-20.6943
		L2336.9729,366.2402z M2338.8245,418.8574h17.043l-8.6797-29.7656L2338.8245,418.8574z"/>
	<path style="&st0;" d="M2394.4514,452.5488v-86.3086h19.9014v86.3086H2394.4514z"/>
	<path style="&st0;" d="M2499.3528,422.3145c-1.3408,10.3516-5.0195,18.3789-11.0352,24.082
		c-6.0156,5.7041-13.7871,8.5547-23.3145,8.5547c-11.3975,0-20.5879-4.1211-27.5742-12.3633
		c-6.9863-8.2412-10.4795-19.0811-10.4795-32.5195c0-13.9834,3.5537-25.1367,10.6641-33.457s16.6279-12.4805,28.5547-12.4805
		c9.4551,0,17.1748,2.7539,23.1553,8.2617s9.3945,13.0283,10.2412,22.5586h-18.7363c-0.918-4.1396-2.6553-7.2559-5.2129-9.3457
		c-2.5586-2.0889-5.9199-3.1348-10.083-3.1348c-5.5752,0-9.9854,2.4414-13.2314,7.3242
		c-3.2471,4.8838-4.8691,11.5635-4.8691,20.0391c0,8.4375,1.5352,14.9912,4.6045,19.6582c3.0703,4.668,7.3916,7.002,12.9668,7.002
		c4.4814,0,8.0713-1.21,10.7715-3.6328c2.6992-2.4219,4.3838-5.9375,5.0537-10.5469H2499.3528z"/>
	<path style="&st0;" d="M2510.9436,452.5488v-86.3086h20.0586v30.6445h27.3105v-30.6445h20.0596v86.3086h-20.0596v-36.3867h-27.3105
		v36.3867H2510.9436z"/>
	<path style="&st0;" d="M2593.2454,366.2402h19.6357v53.9063c0,5.9385,1.0137,10.166,3.043,12.6855
		c2.0283,2.5195,5.3896,3.7793,10.083,3.7793c4.6221,0,7.9385-1.2598,9.9502-3.7793c2.0107-2.5195,3.0166-6.7471,3.0166-12.6855
		v-53.9063h19.8477v51.2695c0,7.2275-0.6348,12.9883-1.9053,17.2852c-1.2705,4.2979-3.3701,7.9307-6.2988,10.8984
		c-3.0693,3.0859-6.6416,5.4004-10.7168,6.9434c-4.0762,1.543-8.6719,2.3145-13.7881,2.3145s-9.7119-0.7715-13.7871-2.3145
		s-7.6484-3.8574-10.7178-6.9434c-2.9639-3.0078-5.0996-6.6699-6.4043-10.9863c-1.3057-4.3154-1.958-10.0488-1.958-17.1973V366.2402
		z"/>
	<path style="&st0;" d="M2673.5354,452.5488v-86.3086h21.5947l14.7139,28.3594c2.3984,4.6094,4.6748,9.1797,6.8271,13.7109
		c2.1514,4.5322,4.1816,9.0039,6.0869,13.418c-0.2832-6.5234-0.4951-12.6357-0.6357-18.3398
		c-0.1416-5.7031-0.2109-10.7227-0.2109-15.0586v-22.0898h19.2646v86.3086h-21.541l-15.2959-29.1797
		c-1.7998-3.4365-3.7578-7.2949-5.875-11.5723s-4.3584-8.8965-6.7217-13.8574c0.3877,5.625,0.6699,10.8604,0.8467,15.7031
		c0.1768,4.8438,0.2646,9.1406,0.2646,12.8906v26.0156H2673.5354z"/>
	<path style="&st0;" d="M2815.2209,452.5488l-1.5879-11.1328c-2.9287,4.5322-6.4131,7.9014-10.4531,10.1074
		s-8.7588,3.3105-14.1572,3.3105c-5.0469,0-9.7129-1.0166-14-3.0469s-8.0713-5.0186-11.3525-8.9648
		c-3.4229-4.0625-6.0166-8.8477-7.7803-14.3555c-1.7646-5.5078-2.6465-11.5225-2.6465-18.0469
		c0-14.1006,3.6426-25.4092,10.9297-33.9258c7.2861-8.5156,16.9805-12.7734,29.083-12.7734c9.1387,0,16.6807,2.54,22.627,7.6172
		c5.9453,5.0781,9.7119,12.1875,11.2998,21.3281h-19.1064c-1.2705-3.7109-3.2119-6.5127-5.8223-8.4082
		c-2.6113-1.8945-5.8047-2.8418-9.5801-2.8418c-5.7158,0-10.3389,2.5781-13.8672,7.7344s-5.292,11.9736-5.292,20.4492
		c0,8.3594,1.7373,15.0098,5.2129,19.9512c3.4756,4.9424,8.124,7.4121,13.9463,7.4121c4.6572,0,8.5127-1.3086,11.5645-3.9258
		c3.0518-2.6162,4.9492-6.2695,5.6895-10.957h-17.3594v-16.582h35.1436v47.0508H2815.2209z"/>
	<path style="&st0;" d="M2943.3567,422.3145c-1.3408,10.3516-5.0195,18.3789-11.0352,24.082
		c-6.0156,5.7041-13.7871,8.5547-23.3145,8.5547c-11.3975,0-20.5879-4.1211-27.5742-12.3633
		c-6.9863-8.2412-10.4795-19.0811-10.4795-32.5195c0-13.9834,3.5537-25.1367,10.6641-33.457s16.6279-12.4805,28.5547-12.4805
		c9.4551,0,17.1748,2.7539,23.1553,8.2617s9.3945,13.0283,10.2412,22.5586h-18.7363c-0.918-4.1396-2.6553-7.2559-5.2129-9.3457
		c-2.5586-2.0889-5.9199-3.1348-10.083-3.1348c-5.5752,0-9.9854,2.4414-13.2314,7.3242
		c-3.2471,4.8838-4.8691,11.5635-4.8691,20.0391c0,8.4375,1.5352,14.9912,4.6045,19.6582c3.0703,4.668,7.3916,7.002,12.9668,7.002
		c4.4814,0,8.0713-1.21,10.7715-3.6328c2.6992-2.4219,4.3838-5.9375,5.0537-10.5469H2943.3567z"/>
	<path style="&st0;" d="M2955.4241,452.5488v-86.3086h19.9014v86.3086H2955.4241z"/>
	<path style="&st0;" d="M3006.7639,452.5488v-68.7891h-22.335v-17.5195h64.623v17.5195h-22.335v68.7891H3006.7639z"/>
	<path style="&st0;" d="M3076.0452,452.5488v-32.5195l-26.9395-53.7891h22.3877l14.3438,34.8047l14.29-34.8047h22.5469
		l-27.2041,53.7891v32.5195H3076.0452z"/>
</g>
</svg>
