<?xml version="1.0" encoding="utf-8"?>
<!-- Generator: Adobe Illustrator 16.0.0, SVG Export Plug-In . SVG Version: 6.00 Build 0)  -->
<!DOCTYPE svg PUBLIC "-//W3C//DTD SVG 1.1//EN" "http://www.w3.org/Graphics/SVG/1.1/DTD/svg11.dtd" [
	<!ENTITY ns_extend "http://ns.adobe.com/Extensibility/1.0/">
	<!ENTITY ns_ai "http://ns.adobe.com/AdobeIllustrator/10.0/">
	<!ENTITY ns_graphs "http://ns.adobe.com/Graphs/1.0/">
	<!ENTITY ns_vars "http://ns.adobe.com/Variables/1.0/">
	<!ENTITY ns_imrep "http://ns.adobe.com/ImageReplacement/1.0/">
	<!ENTITY ns_sfw "http://ns.adobe.com/SaveForWeb/1.0/">
	<!ENTITY ns_custom "http://ns.adobe.com/GenericCustomNamespace/1.0/">
	<!ENTITY ns_adobe_xpath "http://ns.adobe.com/XPath/1.0/">
]>
<svg version="1.1" id="圖層_1" xmlns:x="&ns_extend;" xmlns:i="&ns_ai;" xmlns:graph="&ns_graphs;"
	 xmlns="http://www.w3.org/2000/svg" xmlns:xlink="http://www.w3.org/1999/xlink" x="0px" y="0px" width="3055.332px"
	 height="444.25px" viewBox="0 0 3055.332 444.25" enable-background="new 0 0 3055.332 444.25" xml:space="preserve">
<metadata>
	<sfw  xmlns="&ns_sfw;">
		<slices></slices>
		<sliceSourceBounds  height="419.022" width="3012.497" x="-1207.999" y="211.935" bottomLeftOrigin="true"></sliceSourceBounds>
	</sfw>
</metadata>
<path fill="#D93B2C" d="M393.135,21.803c12.26,20.743,26.205,40.269,41.958,58.514c31.654,36.667,68.168,67.76,108.45,94.509
	c41.62,27.637,85.979,49.958,132.76,67.387c19.877,7.404,40.063,13.979,60.388,21.031c-60.678,0-121.249,0-182.19,0
	c0.346,8.401,2.9,15.603,5.895,22.655c9.115,21.492,23.456,39.267,39.979,55.39c29.308,28.594,63.561,50.105,99.583,69.046
	c1.633,0.858,3.097,2.036,4.333,3.976c-0.856,0.084-1.774,0.414-2.562,0.218c-62.096-15.577-119.581-40.534-167.861-83.697
	c-27.841-24.893-49.063-54.582-62.336-89.697c-0.379-1.004-0.667-2.042-1.183-3.635c29.078,0,57.688,0,86.302,0
	c0.114-0.311,0.227-0.622,0.34-0.934c-3.646-2.638-7.319-5.234-10.933-7.918c-44.854-33.295-85.062-71.225-116.688-117.614
	c-16.813-24.66-30.03-51.054-37.32-80.177c-0.269-1.072-0.388-2.183-0.576-3.275C392.029,25.657,392.582,23.73,393.135,21.803z"/>
<path fill="#8FC544" d="M257.135,87.777c-5.518,59.158-34.842,106.451-74.278,149.311c72.248,0,144.025,0,215.803,0
	c0.039,0.324,0.079,0.651,0.119,0.976c-4.948,0.781-9.886,1.638-14.848,2.332c-15.644,2.188-31.29,4.346-46.944,6.457
	c-22.029,2.972-44.068,5.885-66.101,8.832c-8.316,1.111-16.668,2.045-24.907,3.571c-1.561,0.29-2.983,2.833-3.936,4.621
	c-5.953,11.183-10.879,23.022-17.794,33.563c-13.731,20.937-32.118,37.393-53.261,50.752c-25.52,16.129-53.146,27.135-82.547,33.771
	c-7.086,1.601-14.208,3.05-21.345,4.408c-2.361,0.448-4.817,0.392-7.352-0.208c7.679-3.792,15.463-7.384,23.015-11.412
	c26.137-13.938,49.521-31.383,68.123-54.701c11.257-14.108,20.118-29.532,24.744-47.149c0.208-0.789,0.345-1.598,0.743-3.477
	C124.775,277,73.711,284.498,22.645,291.996c-0.159-0.455-0.319-0.909-0.478-1.363c1.82-0.938,3.583-2.021,5.472-2.794
	c33.479-13.695,65.285-30.581,95.096-51.027c46.157-31.657,86.034-69.727,116.429-117.073c5.934-9.24,10.805-19.161,16.167-28.767
	C255.924,89.902,256.533,88.841,257.135,87.777z"/>
<path fill="#058ECA" d="M488.775,335.054c-0.984,0.096-2.025,0.45-2.946,0.25c-48.055-10.422-95.636-8.771-142.489,6.297
	c-29.808,9.586-57.183,23.916-81.128,44.392c-1.059,0.904-2.696,1.601-4.066,1.604c-34.037,0.088-68.076,0.069-103.138,0.069
	c1.969-1.569,3.21-2.706,4.591-3.638c36.699-24.767,75.807-44.593,118.33-57.312c40.495-12.109,81.844-17.025,124.023-13.684
	c28.021,2.22,55.313,8.006,81.53,18.369c1.874,0.742,3.598,1.856,5.392,2.8C488.842,334.483,488.808,334.769,488.775,335.054z"/>
<path fill="#F0AB21" d="M417.353,213.805c-1.952,0-3.905,0-5.858,0c-24.095,0.003-48.19,0.089-72.286-0.108
	c-2.829-0.022-6.122-0.948-8.395-2.578c-22.957-16.471-38.509-38.625-48.62-64.752c-2.556-6.606-4.824-13.383-6.496-20.258
	c-2.002-8.236-3.222-16.664-3.842-25.433c2.187,2.584,4.461,5.099,6.548,7.76c23.406,29.84,50.275,56.079,81.621,77.5
	c15.992,10.931,33.154,19.748,51.783,25.437c1.832,0.56,3.711,0.955,5.568,1.426C417.369,213.132,417.362,213.469,417.353,213.805z"
	/>
<path fill="#E56D2C" d="M388.413,60.489c-2.961,8.59-5.337,17.439-9.001,25.717c-9.198,20.783-22.694,38.708-38.236,55.18
	c-2.167,2.295-3.825,2.661-6.235,0.529c-9.92-8.772-19.916-17.459-30.734-26.923c1.903-0.333,2.489-0.553,3.062-0.518
	c18.206,1.089,33.129-6.674,46.719-17.637c11.695-9.436,21.628-20.572,30.181-32.933c0.932-1.346,1.94-2.638,2.913-3.955
	C387.525,60.13,387.969,60.31,388.413,60.489z"/>
<path fill="#E56D2C" d="M393.135,21.803c-0.554,1.927-1.106,3.854-1.66,5.778c-1.067-4.555-2.133-9.109-3.201-13.662
	c0.286-0.114,0.571-0.228,0.857-0.341C390.467,16.32,391.802,19.062,393.135,21.803z"/>
<g>
	<path fill="#404040" d="M876.521,380.417c-1.342,10.352-5.021,18.379-11.035,24.082c-6.017,5.704-13.788,8.555-23.313,8.555
		c-11.397,0-20.59-4.121-27.575-12.362c-6.986-8.241-10.479-19.081-10.479-32.521c0-13.982,3.555-25.137,10.665-33.457
		c7.109-8.32,16.627-12.48,28.553-12.48c9.457,0,17.177,2.754,23.156,8.263c5.981,5.508,9.396,13.028,10.241,22.559h-18.735
		c-0.918-4.14-2.655-7.256-5.214-9.346c-2.559-2.089-5.919-3.136-10.082-3.136c-5.576,0-9.985,2.441-13.231,7.324
		c-3.246,4.885-4.869,11.563-4.869,20.039c0,8.438,1.535,14.991,4.604,19.658c3.07,4.668,7.393,7.002,12.969,7.002
		c4.479,0,8.07-1.21,10.771-3.633c2.699-2.422,4.384-5.938,5.055-10.547H876.521L876.521,380.417z"/>
	<path fill="#404040" d="M888.589,410.651v-86.31h19.9v86.31H888.589z"/>
	<path fill="#404040" d="M942.098,410.651l-26.781-86.31h21.171l10.956,44.355c0.176,0.742,0.478,1.954,0.899,3.633
		c1.341,5.313,2.364,9.766,3.069,13.359c0.389-1.759,0.864-3.828,1.43-6.212c0.563-2.382,1.357-5.508,2.382-9.375l11.484-45.762
		h21.013l-26.939,86.31L942.098,410.651L942.098,410.651z"/>
	<path fill="#404040" d="M994.707,410.651v-86.31h19.9v86.31H994.707z"/>
	<path fill="#404040" d="M1030.909,410.651v-86.31h20.007v67.617h37.736v18.692H1030.909L1030.909,410.651z"/>
	<path fill="#404040" d="M1149.201,324.343h21.807l27.521,86.31h-21.436l-4.765-15.82h-26.04l-4.446,15.82h-20.693L1149.201,324.343
		z M1151.054,376.96h17.042l-8.681-29.766L1151.054,376.96z"/>
	<path fill="#404040" d="M1206.309,410.651v-86.31h55.942v17.931h-36.096v17.871h31.333v17.87h-31.333v32.638H1206.309
		L1206.309,410.651z"/>
	<path fill="#404040" d="M1272.415,410.651v-86.31h55.944v17.931h-36.097v17.871h31.333v17.87h-31.333v32.638H1272.415
		L1272.415,410.651z"/>
	<path fill="#404040" d="M1354.399,324.343h21.806l27.522,86.31h-21.437l-4.764-15.82h-26.04l-4.446,15.82h-20.693L1354.399,324.343
		z M1356.252,376.96h17.042l-8.68-29.766L1356.252,376.96z"/>
	<path fill="#404040" d="M1411.878,410.651v-86.31h19.9v86.31H1411.878z"/>
	<path fill="#404040" d="M1447.497,410.651v-86.31h37.314c9.881,0,17.158,1.954,21.834,5.859c4.674,3.905,7.012,9.961,7.012,18.164
		c0,4.844-0.996,8.993-2.99,12.45s-5.09,6.357-9.289,8.701c3.423,1.445,5.841,3.408,7.252,5.89c1.41,2.48,2.224,6.847,2.435,13.096
		c0.106,1.758,0.213,4.122,0.317,7.09c0.246,6.953,1.322,10.979,3.229,12.07v2.988h-20.906c-1.022-3.048-1.604-7.228-1.746-12.539
		c-0.143-5.313-0.282-8.651-0.424-10.021c-0.317-3.358-1.342-5.819-3.069-7.383c-1.73-1.562-4.322-2.344-7.781-2.344h-13.338v32.287
		H1447.497L1447.497,410.651z M1467.344,361.315h14.873c4.022,0,6.979-0.82,8.866-2.461c1.888-1.642,2.83-4.258,2.83-7.853
		c0-3.164-0.918-5.517-2.752-7.062c-1.836-1.543-4.641-2.313-8.416-2.313h-15.401V361.315z"/>
	<path fill="#404040" d="M1523.395,381.999h19.16c0.141,4.922,1.445,8.623,3.916,11.104c2.469,2.481,6.086,3.722,10.85,3.722
		c4.059,0,7.199-0.741,9.422-2.228c2.225-1.483,3.334-3.573,3.334-6.27c0-1.367-0.264-2.587-0.793-3.662
		c-0.529-1.074-1.27-1.884-2.225-2.432c-1.447-0.858-4.992-2.206-10.637-4.043c-5.646-1.837-10.41-3.612-14.291-5.332
		c-5.609-2.461-9.871-5.713-12.781-9.756c-2.912-4.043-4.367-8.761-4.367-14.15c0-8.241,2.797-14.795,8.388-19.658
		c5.594-4.863,13.172-7.295,22.732-7.295c9.385,0,16.83,2.559,22.336,7.676c5.504,5.118,8.256,12.032,8.256,20.742h-18.789
		c-0.424-4.021-1.701-6.992-3.838-8.906c-2.135-1.912-5.213-2.871-9.232-2.871c-3.211,0-5.822,0.732-7.834,2.197
		c-2.014,1.465-3.02,3.331-3.02,5.596c0,3.83,4.781,7.441,14.346,10.84c1.729,0.625,3.053,1.095,3.971,1.406l0.793,0.293
		c9.879,3.555,16.055,6.426,18.523,8.613c2.506,2.266,4.41,4.932,5.717,7.998c1.305,3.067,1.959,6.475,1.959,10.225
		c0,8.595-2.975,15.284-8.918,20.068c-5.947,4.784-14.283,7.178-25.01,7.178c-10.129,0-17.838-2.567-23.129-7.705
		C1526.942,400.213,1523.994,392.429,1523.395,381.999z"/>
	<path fill="#404040" d="M1633.061,410.651v-86.31h37.842c9.068,0,15.764,1.808,20.086,5.421c4.322,3.612,6.484,9.17,6.484,16.67
		c0,4.648-0.963,8.486-2.885,11.514c-1.924,3.027-4.861,5.361-8.813,7.002c4.516,1.289,7.973,3.604,10.373,6.942
		c2.398,3.341,3.6,7.491,3.6,12.451c0,4.844-0.998,9.221-2.99,13.125c-1.994,3.906-4.791,6.936-8.389,9.082
		c-2.436,1.485-5.383,2.54-8.84,3.164c-3.459,0.625-8.785,0.938-15.984,0.938H1633.061L1633.061,410.651z M1652.166,358.093h16.037
		c3.387,0,5.91-0.693,7.568-2.08c1.658-1.386,2.488-3.486,2.488-6.299c0-2.615-0.777-4.6-2.33-5.947
		c-1.555-1.347-3.848-2.021-6.879-2.021h-16.887v16.347H1652.166z M1652.166,393.483h15.084c4.764,0,8.098-0.732,10.004-2.197
		c1.904-1.465,2.857-3.936,2.857-7.412c0-3.125-0.908-5.479-2.725-7.062c-1.818-1.581-4.525-2.372-8.125-2.372h-17.098v19.043
		H1652.166z"/>
	<path fill="#404040" d="M1711.551,324.343h19.635v53.906c0,5.938,1.014,10.166,3.043,12.686c2.029,2.521,5.391,3.779,10.084,3.779
		c4.621,0,7.938-1.26,9.949-3.779c2.012-2.519,3.018-6.747,3.018-12.686v-53.906h19.848v51.271c0,7.228-0.635,12.987-1.904,17.285
		c-1.271,4.298-3.369,7.931-6.301,10.897c-3.066,3.086-6.641,5.4-10.717,6.943s-8.672,2.313-13.787,2.313s-9.713-0.771-13.787-2.313
		s-7.646-3.857-10.719-6.943c-2.963-3.008-5.1-6.67-6.404-10.986c-1.305-4.314-1.957-10.049-1.957-17.196V324.343L1711.551,324.343z
		"/>
	<path fill="#404040" d="M1791.84,410.651v-86.31h37.314c9.879,0,17.156,1.954,21.832,5.859s7.014,9.961,7.014,18.164
		c0,4.844-0.998,8.993-2.99,12.45c-1.994,3.457-5.092,6.357-9.289,8.701c3.422,1.445,5.84,3.408,7.25,5.89
		c1.412,2.48,2.223,6.847,2.436,13.096c0.105,1.758,0.211,4.122,0.316,7.09c0.248,6.953,1.324,10.979,3.229,12.07v2.988h-20.904
		c-1.023-3.048-1.605-7.228-1.746-12.539c-0.143-5.313-0.283-8.651-0.424-10.021c-0.316-3.358-1.342-5.819-3.068-7.383
		c-1.73-1.562-4.324-2.344-7.781-2.344h-13.338v32.287H1791.84L1791.84,410.651z M1811.688,361.315h14.873
		c4.023,0,6.977-0.82,8.865-2.461c1.887-1.642,2.832-4.258,2.832-7.853c0-3.164-0.918-5.517-2.752-7.062
		c-1.836-1.543-4.641-2.313-8.416-2.313h-15.402V361.315L1811.688,361.315z"/>
	<path fill="#404040" d="M1871.496,410.651v-86.31h59.225v17.695h-39.271v15.233h35.885v17.285h-35.885v18.457h40.543v17.639
		H1871.496z"/>
	<path fill="#404040" d="M1964.278,324.343h21.805l27.521,86.31h-21.434l-4.764-15.82h-26.041l-4.445,15.82h-20.695
		L1964.278,324.343z M1966.129,376.96h17.043l-8.68-29.766L1966.129,376.96z"/>
	<path fill="#404040" d="M2018.846,324.343h19.635v53.906c0,5.938,1.014,10.166,3.043,12.686c2.029,2.521,5.391,3.779,10.084,3.779
		c4.621,0,7.938-1.26,9.949-3.779c2.012-2.519,3.018-6.747,3.018-12.686v-53.906h19.848v51.271c0,7.228-0.635,12.987-1.904,17.285
		c-1.271,4.298-3.369,7.931-6.301,10.897c-3.066,3.086-6.641,5.4-10.717,6.943s-8.672,2.313-13.787,2.313
		c-5.117,0-9.713-0.771-13.787-2.313c-4.076-1.543-7.646-3.857-10.719-6.943c-2.963-3.008-5.1-6.67-6.404-10.986
		c-1.305-4.314-1.957-10.049-1.957-17.196V324.343L2018.846,324.343z"/>
	<path fill="#404040" d="M2094.108,410.651v-20.625h19.477v15c0,7.813-1.641,13.848-4.922,18.104s-8.24,6.776-14.873,7.56v-7.207
		c3.602-0.978,6.246-2.452,7.939-4.425s2.541-4.58,2.541-7.821v-0.586H2094.108L2094.108,410.651z"/>
	<path fill="#404040" d="M2174.926,410.651v-68.789h-22.334v-17.521h64.623v17.521h-22.336v68.789H2174.926z"/>
	<path fill="#404040" d="M2242.514,324.343h21.807l27.521,86.31h-21.436l-4.764-15.82h-26.039l-4.447,15.82h-20.693
		L2242.514,324.343z M2244.365,376.96h17.043l-8.68-29.766L2244.365,376.96z"/>
	<path fill="#404040" d="M2299.992,410.651v-86.31h19.902v86.31H2299.992z"/>
	<path fill="#404040" d="M2404.895,380.417c-1.342,10.352-5.02,18.379-11.035,24.082c-6.016,5.704-13.787,8.555-23.314,8.555
		c-11.396,0-20.588-4.121-27.572-12.362c-6.986-8.241-10.48-19.081-10.48-32.521c0-13.982,3.555-25.137,10.664-33.457
		c7.111-8.32,16.629-12.48,28.555-12.48c9.455,0,17.176,2.754,23.156,8.263c5.98,5.508,9.395,13.028,10.24,22.559h-18.736
		c-0.918-4.14-2.654-7.256-5.213-9.346c-2.559-2.089-5.92-3.136-10.082-3.136c-5.576,0-9.986,2.441-13.232,7.324
		c-3.246,4.885-4.869,11.563-4.869,20.039c0,8.438,1.535,14.991,4.605,19.658c3.07,4.668,7.391,7.002,12.967,7.002
		c4.48,0,8.07-1.21,10.771-3.633c2.699-2.422,4.383-5.938,5.053-10.547H2404.895L2404.895,380.417z"/>
	<path fill="#404040" d="M2416.485,410.651v-86.31h20.059v30.646h27.313v-30.646h20.061v86.31h-20.061v-36.388h-27.313v36.388
		H2416.485z"/>
	<path fill="#404040" d="M2498.787,324.343h19.635v53.906c0,5.938,1.014,10.166,3.043,12.686c2.029,2.521,5.391,3.779,10.084,3.779
		c4.621,0,7.938-1.26,9.949-3.779c2.01-2.519,3.018-6.747,3.018-12.686v-53.906h19.848v51.271c0,7.228-0.635,12.987-1.906,17.285
		c-1.27,4.298-3.369,7.931-6.299,10.897c-3.068,3.086-6.641,5.4-10.717,6.943s-8.672,2.313-13.787,2.313
		c-5.117,0-9.713-0.771-13.787-2.313c-4.076-1.543-7.648-3.857-10.719-6.943c-2.963-3.008-5.1-6.67-6.404-10.986
		c-1.305-4.314-1.957-10.049-1.957-17.196V324.343L2498.787,324.343z"/>
	<path fill="#404040" d="M2579.076,410.651v-86.31h21.596l14.713,28.359c2.398,4.608,4.678,9.18,6.828,13.711
		c2.15,4.532,4.182,9.004,6.086,13.418c-0.283-6.523-0.494-12.636-0.635-18.34c-0.143-5.703-0.211-10.724-0.211-15.06v-22.09h19.264
		v86.311h-21.541l-15.295-29.181c-1.801-3.437-3.758-7.295-5.875-11.571c-2.117-4.277-4.357-8.896-6.723-13.857
		c0.389,5.625,0.67,10.859,0.848,15.703c0.176,4.844,0.264,9.141,0.264,12.891v26.016H2579.076z"/>
	<path fill="#404040" d="M2720.762,410.651l-1.588-11.134c-2.928,4.532-6.412,7.901-10.453,10.107
		c-4.039,2.206-8.758,3.311-14.156,3.311c-5.047,0-9.713-1.017-14-3.047c-4.287-2.029-8.072-5.019-11.354-8.965
		c-3.422-4.063-6.016-8.848-7.779-14.354c-1.766-5.509-2.646-11.522-2.646-18.047c0-14.102,3.645-25.41,10.932-33.926
		c7.283-8.517,16.979-12.773,29.082-12.773c9.139,0,16.682,2.539,22.627,7.617c5.943,5.078,9.713,12.188,11.301,21.328h-19.107
		c-1.27-3.711-3.211-6.514-5.822-8.408c-2.611-1.896-5.805-2.842-9.58-2.842c-5.715,0-10.338,2.578-13.867,7.733
		c-3.527,5.156-5.291,11.974-5.291,20.449c0,8.358,1.736,15.01,5.213,19.951c3.475,4.941,8.123,7.412,13.945,7.412
		c4.658,0,8.514-1.31,11.564-3.927c3.053-2.616,4.949-6.27,5.689-10.957h-17.359v-16.58h35.145v47.051H2720.762L2720.762,410.651z"
		/>
	<path fill="#404040" d="M2848.899,380.417c-1.342,10.352-5.02,18.379-11.035,24.082c-6.016,5.704-13.787,8.555-23.313,8.555
		c-11.398,0-20.588-4.121-27.574-12.362s-10.48-19.081-10.48-32.521c0-13.982,3.555-25.137,10.664-33.457
		c7.111-8.32,16.629-12.48,28.555-12.48c9.455,0,17.176,2.754,23.156,8.263c5.98,5.508,9.395,13.028,10.24,22.559h-18.736
		c-0.918-4.14-2.654-7.256-5.213-9.346c-2.559-2.089-5.92-3.136-10.082-3.136c-5.576,0-9.986,2.441-13.232,7.324
		c-3.246,4.885-4.869,11.563-4.869,20.039c0,8.438,1.535,14.991,4.605,19.658c3.07,4.668,7.391,7.002,12.967,7.002
		c4.48,0,8.07-1.21,10.771-3.633c2.699-2.422,4.383-5.938,5.053-10.547H2848.899L2848.899,380.417z"/>
	<path fill="#404040" d="M2860.965,410.651v-86.31h19.902v86.31H2860.965z"/>
	<path fill="#404040" d="M2912.305,410.651v-68.789h-22.334v-17.521h64.623v17.521h-22.336v68.789H2912.305z"/>
	<path fill="#404040" d="M2981.586,410.651v-32.521l-26.939-53.789h22.389l14.344,34.806l14.289-34.806h22.549l-27.203,53.789
		v32.521H2981.586z"/>
</g>
<g>
	<path fill="#404040" stroke="#FFFFFF" stroke-width="3" stroke-miterlimit="10" d="M834,99.972l5.729,0.996
		c0,6.809-0.085,12.868-0.249,18.179h159.624c3.151-3.152,5.809-5.728,7.969-7.72c3.152-3.486,5.561-5.229,7.222-5.229
		c2.156,0,7.137,3.405,14.941,10.21c7.303,5.813,10.957,10.046,10.957,12.7c0,1.992-2.078,3.323-6.226,3.984
		c-4.319,0-6.892,0.249-7.72,0.747c-7.141,5.813-16.188,11.541-27.145,17.183l-3.735-1.992c2.654-7.471,4.896-15.105,6.725-22.91
		h-26.646c1.494,1.494,3.237,3.323,5.229,5.479c5.642,6.144,8.467,9.961,8.467,11.455c0,2.49-1.245,3.735-3.735,3.735h-62.505
		c-4.151,4.817-8.552,9.132-13.197,12.949c-2.16,1.494-5.229,3.405-9.215,5.728c22.078-0.498,43.245-1.078,63.501-1.743
		c-4.481-2.988-9.299-5.977-14.442-8.965l1.992-4.731c14.606,1.992,26.311,4.319,35.111,6.973
		c8.467,2.825,14.607,5.728,18.428,8.716c3.319,2.658,4.98,5.396,4.98,8.219c0,4.318-1.494,8.053-4.482,11.205
		c-2.824,3.82-6.226,5.729-10.21,5.729c-2.657,0-7.887-4.563-15.688-13.696c-2.658-2.987-5.646-5.81-8.965-8.467
		c-11.953,2.825-23.992,5.397-36.108,7.72v25.4h25.898c0.662-0.163,3.069-2.988,7.222-8.467c5.479-6.309,8.716-9.463,9.712-9.463
		c2.654,0,6.725,3.154,12.202,9.463c5.809,6.312,8.716,10.127,8.716,11.455c0,2.489-1.331,3.734-3.984,3.734h-59.766v22.91h60.762
		c0.662-0.168,3.486-3.322,8.468-9.463c5.809-7.639,9.295-11.455,10.459-11.455c3.151,0,8.05,3.734,14.691,11.206
		c6.806,7.136,10.21,11.455,10.21,12.948c0,2.654-1.743,3.984-5.229,3.984H844.957c-14.442,0-24.738,0.331-30.879,0.996
		l-4.232-10.21c8.132,1.326,19.836,1.992,35.111,1.992h60.514v-22.91h-27.643c-14.442,0-24.739,0.33-30.879,0.996l-4.232-9.961
		c8.132,1.494,19.836,2.241,35.111,2.241h27.643v-20.172c-15.439,2.49-31.213,4.567-47.314,6.226
		c-4.979,0.167-7.471,0.833-7.471,1.992c-0.167,0.833-0.334,1.829-0.498,2.987c-0.498,1.992-1.245,2.988-2.241,2.988
		c-2.825,0-6.311-5.062-10.459-15.189c-1.164-2.821-3.074-7.471-5.728-13.945c16.599-0.164,32.703-0.413,48.311-0.747
		c1.327-1.825,2.49-3.568,3.486-5.229c3.485-5.311,5.891-9.961,7.222-13.945h-11.953c-14.611,0-24.902,0.417-30.879,1.245
		l-3.984-9.961c7.97,1.331,19.587,1.992,34.863,1.992h72.715c0.498-0.331,2.903-3.152,7.223-8.467
		c1.991-2.156,3.649-3.984,4.979-5.479H839.229c-0.334,5.148-0.747,9.214-1.245,12.202c-1.662,7.14-4.401,12.202-8.218,15.19
		c-1.992,1.494-4.233,2.241-6.725,2.241c-5.479,0-10.21-1.576-14.193-4.731c-3.156-2.988-4.731-6.973-4.731-11.953
		c0-2.654,2.739-5.642,8.218-8.965c5.643-3.486,10.125-7.385,13.447-11.704C828.934,114.415,831.674,108.275,834,99.972z
		 M812.086,33.482c7.97,1.331,19.587,1.992,34.863,1.992h61.26c-0.498-7.969-1.413-15.272-2.738-21.914
		c7.303,0.666,16.766,1.992,28.389,3.984c8.965,1.494,13.447,3.156,13.447,4.98c0,2.49-2.241,4.65-6.725,6.475
		c-3.485,1.331-5.229,3.486-5.229,6.475h53.789c0.662-0.331,3.318-3.319,7.969-8.965c5.809-6.805,9.214-10.21,10.21-10.21
		c2.821,0,7.303,3.323,13.447,9.961c6.307,6.642,9.463,10.626,9.463,11.953c0,2.825-1.331,4.233-3.984,4.233h-35.36
		c2.322,1.494,4.895,3.735,7.72,6.724c5.809,5.977,8.716,9.63,8.716,10.957c0,2.825-1.331,4.233-3.984,4.233H864.88
		c-14.443,0-24.739,0.334-30.88,0.996l-4.232-9.961c8.132,1.164,19.836,1.743,35.112,1.743h43.827v-5.977
		c0-2.988-0.085-5.891-0.249-8.716h-61.509c-14.61,0-24.901,0.334-30.879,0.996L812.086,33.482z M845.953,66.354
		c10.125,2.49,20.501,6.144,31.128,10.957h90.146c3.152-3.319,5.728-5.977,7.72-7.969c2.156-1.992,4.315-2.988,6.476-2.988
		c2.82,0,7.72,2.49,14.691,7.471c8.132,5.148,12.202,8.965,12.202,11.455c0,1.662-1.58,3.323-4.731,4.98
		c-2.987,1.494-4.73,3.156-5.229,4.98v12.949c0,2.658-4.07,4.65-12.202,5.977c-3.654,0.498-6.311,0.747-7.969,0.747
		c-4.482,0-6.724-1.907-6.724-5.728v-3.984h-96.87v1.992c0,3.156-4.07,5.479-12.202,6.973c-3.323,0.498-5.813,0.747-7.472,0.747
		c-5.314,0-7.969-2.241-7.969-6.724c0.662-4.813,0.996-10.21,0.996-16.187v-4.731C847.945,81.295,847.28,74.322,845.953,66.354z
		 M874.592,98.229h96.87V84.284h-96.87V98.229L874.592,98.229z M935.352,57.14h36.107c0.498-0.164,2.654-2.821,6.476-7.969
		c2.654-2.988,4.646-5.229,5.977-6.724h-48.56V57.14z"/>
	<path fill="#404040" stroke="#FFFFFF" stroke-width="3" stroke-miterlimit="10" d="M1107.647,57.14
		c12.615,2.988,24.486,6.973,35.609,11.953h48.81v-3.735c0-19.089-0.996-35.774-2.988-50.054c8.797,0.833,19.836,2.409,33.12,4.731
		c9.295,1.164,13.945,2.907,13.945,5.229c0,2.988-2.739,5.479-8.219,7.471c-3.983,1.164-5.977,3.323-5.977,6.475v29.883h47.064
		c3.984-4.98,7.802-9.295,11.455-12.949c2.654-3.319,5.063-4.98,7.223-4.98c2.489,0,7.883,2.658,16.187,7.969
		c9.793,6.809,14.692,11.541,14.692,14.194c0,2.327-1.992,4.731-5.978,7.222c-3.323,2.327-4.979,4.899-4.979,7.72v43.828
		c0,8.136,0.331,19.342,0.996,33.618c0,3.486-4.568,5.978-13.696,7.472c-3.984,0.498-7.058,0.746-9.214,0.746
		c-4.482,0-6.725-2.738-6.725-8.218v-11.954h-57.025v32.871c0,16.77,0.331,33.12,0.996,49.059c0,3.485-4.65,6.226-13.945,8.218
		c-4.152,0.497-7.14,0.747-8.965,0.747c-6.643,0-9.961-2.988-9.961-8.965c1.327-17.931,1.992-34.28,1.992-49.059v-32.871h-52.545
		v10.957c0,3.821-4.481,6.561-13.446,8.219c-3.984,0.666-6.892,0.996-8.716,0.996c-6.476,0-9.713-2.74-9.713-8.219
		c1.327-20.583,1.992-38.848,1.992-54.785v-4.73C1109.639,92.75,1108.973,76.4,1107.647,57.14z M1139.522,146.788h52.544V76.314
		h-52.544V146.788z M1221.949,76.314v70.474h57.026V76.314H1221.949z"/>
	<path fill="#404040" stroke="#FFFFFF" stroke-width="3" stroke-miterlimit="10" d="M1475.675,15.304
		c11.953,1.164,23.569,2.825,34.861,4.98c6.807,0.334,10.21,1.992,10.21,4.98c0,1.331-2.078,2.907-6.226,4.731
		c-4.649,2.16-6.973,4.568-6.973,7.222v18.179h49.058c0.828-0.331,4.146-4.233,9.961-11.704
		c7.303-8.797,11.617-13.198,12.949-13.198c3.648,0,9.377,4.233,17.182,12.7c7.803,8.303,11.705,13.284,11.705,14.941
		c0,2.825-1.744,4.233-5.23,4.233h-188.011c-13.615,0-24.988,0.666-34.115,1.992l-3.984-11.953
		c15.271,1.992,29.299,2.988,42.085,2.988h58.521V39.21C1477.666,31.576,1477,23.607,1475.675,15.304z M1404.204,96.236
		c10.957,2.658,75.455,10.957,75.455,10.957c-0.336-13.113-1.332-24.817-2.988-35.112c7.802,0.833,17.681,2.241,29.634,4.233
		c8.132,0.996,12.202,2.576,12.202,4.731c0,2.988-2.241,5.315-6.725,6.973c-3.486,0.996-5.229,3.074-5.229,6.226v12.949h41.089
		c2.488-2.988,4.48-5.393,5.977-7.222c5.145-5.311,8.797-7.969,10.957-7.969c2.652,0,8.381,3.237,17.184,9.712
		c8.299,6.475,12.449,10.875,12.449,13.198c0,1.992-1.99,4.482-5.977,7.471c-5.146,3.486-7.719,6.724-7.719,9.712v65.493
		c0,9.463-4.568,16.519-13.697,21.167c-7.139,3.984-13.197,5.977-18.178,5.977c-1.992,0-3.822-3.322-5.48-9.961
		c-2.326-7.802-11.205-14.442-26.645-19.922l0.996-4.979c12.948,1.331,23.321,1.991,31.127,1.991c1.824,0,2.738-2.652,2.738-7.969
		v-69.976h-44.823v125.757c0,3.319-3.984,5.729-11.952,7.223c-3.486,0.498-6.146,0.746-7.969,0.746
		c-5.978,0-8.965-2.656-8.965-7.969c1.493-16.104,2.239-30.716,2.239-43.828v-78.69c0-0.996,0-2.074,0-3.237h-47.064v105.586
		c0,3.318-3.984,5.809-11.953,7.471c-3.654,0.498-6.312,0.748-7.969,0.748c-5.813,0-8.716-2.74-8.716-8.219
		c1.326-17.93,1.991-33.781,1.991-47.563v-31.875C1406.196,127.948,1405.531,113.337,1404.204,96.236z"/>
	<path fill="#404040" stroke="#FFFFFF" stroke-width="3" stroke-miterlimit="10" d="M1666.645,37.218
		c8.131,1.331,19.836,1.992,35.111,1.992h47.563c0.662-0.331,3.486-3.735,8.467-10.21c6.141-7.801,9.713-11.704,10.709-11.704
		c3.15,0,8.217,3.735,15.189,11.206c6.973,7.471,10.459,12.121,10.459,13.945c0,2.658-1.58,3.984-4.73,3.984h-37.104v63.75h3.236
		c0.162,0,1.824-1.743,4.98-5.229c4.645-5.144,7.633-7.72,8.965-7.72c1.326,0,5.229,2.988,11.703,8.965
		c0.332,0.334,0.58,0.583,0.748,0.747c3.15-9.295,5.727-18.093,7.719-26.396c4.814-18.758,8.717-41.089,11.705-66.987
		c8.797,2.327,17.346,4.731,25.648,7.222c8.133,2.327,12.201,4.817,12.201,7.471c0,2.825-2.24,4.568-6.723,5.229
		c-4.32,0.833-6.811,1.743-7.471,2.739c-3.156,13.117-6.811,25.07-10.957,35.859h30.879c0.33,0,3.15-2.903,8.467-8.716
		c6.973-8.797,11.455-13.198,13.447-13.198c2.322,0,8.549,4.731,18.676,14.194c6.309,5.813,9.463,9.463,9.463,10.957
		c0,2.49-1.742,3.735-5.229,3.735h-12.451c-4.482,23.078-10.957,45.159-19.424,66.24c-5.314,14.443-11.123,26.481-17.432,36.108
		c4.482,4.816,9.463,9.3,14.941,13.447c12.451,9.463,26.646,17.346,42.582,23.656l-1.992,4.232
		c-5.645,0.662-10.209,5.229-13.695,13.697c-2.824,5.479-4.898,8.217-6.227,8.217c-5.645,0-15.355-6.56-29.135-19.672
		c-8.467-7.806-15.775-15.938-21.914-24.404c-6.973,7.303-14.859,13.859-23.658,19.673c-16.271,11.288-34.201,20.085-53.789,26.396
		l-1.99-4.232c17.594-10.295,32.373-21.004,44.326-32.124c8.797-7.97,16.766-17.347,23.904-28.14
		c-2.326-4.98-4.318-10.043-5.977-15.19c-5.646-18.26-9.213-37.933-10.707-59.019c-6.313,11.125-13.863,22.498-22.662,34.116
		l-4.232-3.984c3.15-7.136,5.891-14.109,8.219-20.918h-26.148v71.719c12.783-2.155,25.152-4.481,37.105-6.974l0.994,2.988
		c-31.045,18.266-63.998,31.458-98.861,39.596c-3.984,0.498-5.977,1.576-5.977,3.236c-0.168,0.829-0.416,1.992-0.748,3.486
		c-0.664,2.322-1.66,3.486-2.986,3.486c-3.486,0-7.639-6.145-12.451-18.429c-1.332-3.323-3.572-8.88-6.725-16.685
		c6.141-0.33,12.201-0.828,18.18-1.494v-76.948c0-13.447-0.666-25.4-1.992-35.859c6.637,0.666,15.354,1.911,26.146,3.735
		c8.301,1.164,12.451,2.49,12.451,3.984c0,2.49-2.242,4.65-6.725,6.475c-3.486,0.996-5.229,2.907-5.229,5.729v90.396
		c6.973-0.661,13.695-1.493,20.17-2.489V46.432h-23.904c-14.443,0-24.74,0.249-30.879,0.747L1666.645,37.218z M1803.358,96.485
		c0.996,7.638,2.902,16.436,5.729,26.396c3.816,14.443,9.129,27.56,15.938,39.346c3.65-7.471,7.055-16.436,10.211-26.895
		c5.977-16.766,10.707-35.525,14.193-56.279h-38.102c-2.158,5.479-4.48,10.708-6.973,15.688
		C1804.02,95.24,1803.69,95.824,1803.358,96.485z"/>
	<path fill="#404040" stroke="#FFFFFF" stroke-width="3" stroke-miterlimit="10" d="M2055.838,13.561
		c11.785,0.996,23.072,2.49,33.867,4.482c6.637,0.334,9.961,2.16,9.961,5.479c0,0.996-1.992,2.409-5.977,4.233
		c-4.482,1.829-6.725,4.07-6.725,6.724v12.7h40.84c0.33,0,3.07-2.988,8.219-8.965c7.135-8.63,11.703-12.949,13.695-12.949
		s8.133,4.731,18.428,14.194c6.309,5.646,9.463,9.214,9.463,10.708c0,2.825-1.66,4.233-4.98,4.233h-177.553v58.521
		c0,22.249-1.164,41.836-3.486,58.77c-2.826,14.941-7.887,28.974-15.189,42.086c-6.313,10.123-15.027,20.42-26.148,30.879
		l-3.734-2.241c8.133-16.771,13.529-32.541,16.188-47.313c3.816-18.429,5.727-45.821,5.727-82.179s-0.996-62.505-2.986-78.442
		c14.773,4.319,26.311,8.552,34.613,12.7h57.773V36.222C2057.83,28.918,2057.164,21.366,2055.838,13.561z M2029.194,61.124
		c8.467,2.49,16.598,4.899,24.404,7.222c7.633,2.49,11.455,5.148,11.455,7.969c0,2.16-2.078,3.572-6.227,4.233
		c-3.984,0.666-6.227,1.494-6.725,2.49c-4.318,13.117-9.133,24.821-14.443,35.112c1.992,0.498,3.736,1.082,5.229,1.743
		c5.48,1.494,8.219,2.825,8.219,3.984c0,2.988-1.58,5.315-4.73,6.973c-2.16,0.996-3.238,3.074-3.238,6.226v102.598
		c0,3.319-3.982,5.728-11.951,7.222c-3.822,0.498-6.477,0.748-7.971,0.748c-6.143,0-9.213-2.658-9.213-7.97
		c1.326-18.265,1.992-36.521,1.992-54.784v-33.37c-5.148,6.642-11.043,13.447-17.682,20.42l-4.232-4.233
		c9.793-17.595,17.096-33.949,21.914-49.058C2021.139,102.711,2025.539,83.536,2029.194,61.124z M2052.104,108.189
		c7.969,1.331,19.586,1.992,34.861,1.992h31.875v-10.21c0-14.774-0.996-27.723-2.986-38.848c7.633,1.164,14.441,2.327,20.42,3.486
		c13.609,1.829,20.42,3.654,20.42,5.479c0,2.658-2.16,5.148-6.477,7.471c-2.824,0.833-4.318,2.658-4.48,5.479v27.144
		c0.498-0.331,2.652-2.988,6.475-7.969c4.813-6.14,7.633-9.214,8.467-9.214c2.49,0,6.557,3.074,12.201,9.214
		c5.811,5.813,8.717,9.381,8.717,10.708c0,2.825-1.332,4.233-3.984,4.233h-31.875v90.396c0,15.439-3.82,25.314-11.455,29.635
		c-8.965,4.979-15.773,7.471-20.42,7.471c-2.49,0-4.4-2.825-5.729-8.467c-2.326-9.133-12.699-16.935-31.127-23.408l0.746-5.229
		c10.791,1.992,19.836,2.988,27.145,2.988c4.98,0,8.717-0.666,11.207-1.992c1.824-0.996,2.738-3.237,2.738-6.724v-84.668h-31.875
		c-14.609,0-24.988,0.334-31.127,0.996L2052.104,108.189z M2064.057,132.843c16.268,6.475,27.723,12.202,34.363,17.183
		c6.309,4.817,9.463,9.132,9.463,12.949c0,6.973-2.076,12.868-6.225,17.681c-3.654,4.649-7.969,6.973-12.949,6.973
		c-2.16,0-4.07-0.662-5.729-1.992c-1.494-1.493-3.236-6.389-5.229-14.692c-2.16-9.792-8.055-21.498-17.682-35.111L2064.057,132.843z
		"/>
	<path fill="#404040" stroke="#FFFFFF" stroke-width="3" stroke-miterlimit="10" d="M2415.399,16.3c2.154,0,7.385,2.576,15.688,7.72
		c9.463,6.475,14.193,10.875,14.193,13.198c0,2.658-2.158,5.148-6.475,7.471c-2.988,2.327-4.482,4.899-4.482,7.72v12.949
		c0,7.969,0.332,18.926,0.996,32.871c0,3.156-4.398,5.564-13.197,7.222c-3.984,0.498-6.891,0.747-8.717,0.747
		c-4.816,0-7.221-2.654-7.221-7.969v-6.226h-32.623c0.83,16.603,3.07,31.213,6.725,43.828h29.137c0.33,0,2.986-2.903,7.969-8.716
		c7.135-8.797,11.785-13.198,13.945-13.198c2.154,0,8.299,4.731,18.428,14.194c6.307,5.813,9.463,9.463,9.463,10.957
		c0,2.658-1.662,3.984-4.98,3.984h-72.217c2.652,8.136,6.139,15.774,10.459,22.91c5.479,9.463,12.365,18.016,20.668,25.648
		c8.133,8.138,13.779,12.203,16.936,12.203c3.982,0,7.719-5.479,11.205-16.437c2.322-6.638,4.646-13.86,6.973-21.665l5.977,0.996
		l-0.996,34.116c0,7.304,1.16,12.782,3.486,16.436c2.156,5.479,3.238,9.296,3.238,11.455c0,4.979-1.164,8.548-3.486,10.708
		c-2.49,2.82-5.229,4.233-8.219,4.233c-6.313,0-14.859-3.073-25.648-9.214c-10.795-5.978-22.25-15.439-34.365-28.39
		c-11.291-12.45-20.17-26.311-26.646-41.587c-2.656-6.307-5.064-13.447-7.221-21.416h-62.754v62.505
		c26.895-1.991,52.209-4.646,75.951-7.969l0.996,3.237c-31.543,15.771-64.912,27.144-100.107,34.115
		c-3.652,0.33-5.479,1.246-5.479,2.739c-0.334,0.829-0.664,1.992-0.996,3.486c-0.498,2.323-1.58,3.485-3.236,3.485
		c-3.486,0-7.807-6.312-12.949-18.926c-1.332-3.486-3.654-9.214-6.973-17.183c8.299-0.334,16.35-0.747,24.154-1.245V73.326
		c0-22.576-1.082-39.509-3.236-50.801c9.625,1.992,20.668,5.646,33.119,10.957h103.346c4.146-4.813,8.051-8.879,11.703-12.202
		C2410.58,17.961,2413.071,16.3,2415.399,16.3z M2291.633,40.206v45.073h114.551V40.206H2291.633z M2352.645,135.831
		c-2.826-12.615-5.066-27.225-6.725-43.828h-54.287v43.828H2352.645z"/>
	<path fill="#404040" stroke="#FFFFFF" stroke-width="3" stroke-miterlimit="10" d="M2523.444,37.218
		c8.133,1.331,19.836,1.992,35.113,1.992h47.563c0.66-0.331,3.486-3.735,8.467-10.21c6.141-7.801,9.711-11.704,10.707-11.704
		c3.152,0,8.219,3.735,15.191,11.206c6.971,7.471,10.459,12.121,10.459,13.945c0,2.658-1.58,3.984-4.732,3.984h-37.104v63.75h3.238
		c0.162,0,1.824-1.743,4.979-5.229c4.646-5.144,7.635-7.72,8.965-7.72c1.328,0,5.23,2.988,11.705,8.965
		c0.33,0.334,0.58,0.583,0.746,0.747c3.152-9.295,5.729-18.093,7.721-26.396c4.813-18.758,8.717-41.089,11.705-66.987
		c8.797,2.327,17.346,4.731,25.648,7.222c8.131,2.327,12.201,4.817,12.201,7.471c0,2.825-2.24,4.568-6.725,5.229
		c-4.318,0.833-6.809,1.743-7.471,2.739c-3.154,13.117-6.809,25.07-10.957,35.859h30.879c0.332,0,3.152-2.903,8.467-8.716
		c6.975-8.797,11.455-13.198,13.447-13.198c2.324,0,8.549,4.731,18.678,14.194c6.309,5.813,9.463,9.463,9.463,10.957
		c0,2.49-1.742,3.735-5.229,3.735h-12.451c-4.482,23.078-10.957,45.159-19.424,66.24c-5.316,14.443-11.125,26.481-17.432,36.108
		c4.48,4.816,9.463,9.3,14.939,13.447c12.451,9.463,26.646,17.346,42.584,23.656l-1.992,4.232
		c-5.646,0.662-10.211,5.229-13.695,13.697c-2.826,5.479-4.898,8.217-6.227,8.217c-5.646,0-15.357-6.56-29.137-19.672
		c-8.467-7.806-15.773-15.938-21.914-24.404c-6.973,7.303-14.859,13.859-23.656,19.673c-16.271,11.288-34.203,20.085-53.789,26.396
		l-1.992-4.232c17.596-10.295,32.373-21.004,44.326-32.124c8.797-7.97,16.768-17.347,23.906-28.14
		c-2.328-4.98-4.32-10.043-5.979-15.19c-5.645-18.26-9.213-37.933-10.707-59.019c-6.313,11.125-13.863,22.498-22.66,34.116
		l-4.234-3.984c3.152-7.136,5.893-14.109,8.219-20.918h-26.146v71.719c12.781-2.155,25.15-4.481,37.104-6.974l0.996,2.988
		c-31.047,18.266-64,31.458-98.861,39.596c-3.984,0.498-5.979,1.576-5.979,3.236c-0.166,0.829-0.416,1.992-0.746,3.486
		c-0.666,2.322-1.662,3.486-2.988,3.486c-3.486,0-7.639-6.145-12.451-18.429c-1.33-3.323-3.572-8.88-6.725-16.685
		c6.141-0.33,12.203-0.828,18.18-1.494v-76.948c0-13.447-0.666-25.4-1.992-35.859c6.639,0.666,15.354,1.911,26.146,3.735
		c8.301,1.164,12.451,2.49,12.451,3.984c0,2.49-2.24,4.65-6.725,6.475c-3.484,0.996-5.229,2.907-5.229,5.729v90.396
		c6.973-0.661,13.697-1.493,20.172-2.489V46.432h-23.906c-14.443,0-24.74,0.249-30.879,0.747L2523.444,37.218z M2660.158,96.485
		c0.996,7.638,2.902,16.436,5.729,26.396c3.816,14.443,9.127,27.56,15.938,39.346c3.648-7.471,7.055-16.436,10.209-26.895
		c5.979-16.766,10.709-35.525,14.195-56.279h-38.102c-2.158,5.479-4.482,10.708-6.973,15.688
		C2660.819,95.24,2660.489,95.824,2660.158,96.485z"/>
	<path fill="#404040" stroke="#FFFFFF" stroke-width="3" stroke-miterlimit="10" d="M2988.34,18.292
		c3.152,0,8.551,2.825,16.188,8.467c8.631,5.813,12.949,9.961,12.949,12.451c0,1.992-1.828,3.903-5.479,5.728
		c-3.156,1.662-4.98,3.405-5.479,5.229v34.116c0,2.825-4.234,4.899-12.701,6.226c-3.82,0.334-6.561,0.498-8.217,0.498
		c-4.818,0-7.223-2.241-7.223-6.724v-2.241h-119.531v10.957c0,7.307-0.086,14.28-0.248,20.918h131.732
		c3.15-3.152,5.561-5.809,7.221-7.969c3.32-3.984,5.979-5.978,7.971-5.978c3.15,0,8.965,3.156,17.432,9.463
		c6.805,5.646,10.209,9.797,10.209,12.451c0,1.331-1.494,3.323-4.482,5.977c-3.154,2.49-4.896,4.817-5.229,6.973
		c-0.832,16.436-2.738,35.945-5.729,58.521c-2.824,18.093-6.475,30.131-10.957,36.107c-3.322,4.646-7.969,8.219-13.943,10.708
		c-6.313,2.988-11.125,4.481-14.443,4.481c-1.662,0-3.324-2.987-4.98-8.965c-2.656-7.14-12.289-14.442-28.887-21.914l0.996-5.229
		c12.613,2.156,21.664,3.237,27.145,3.237c4.813,0,8.467-1.494,10.957-4.482c2.322-3.151,4.395-13.446,6.225-30.879
		c3.152-19.424,4.732-37.852,4.732-55.283h-136.217c-0.498,14.28-1.494,27.478-2.988,39.595
		c-3.154,17.268-8.717,33.369-16.686,48.311c-6.641,11.785-15.773,23.657-27.393,35.61l-5.229-2.241
		c9.295-19.261,15.604-37.519,18.926-54.785c3.984-21.082,5.977-52.625,5.977-94.629c0-34.031-0.996-58.602-2.988-73.711
		c14.443,4.319,25.814,8.716,34.117,13.198h111.563c2.988-4.148,5.729-7.552,8.219-10.21
		C2984.022,19.623,2986.182,18.292,2988.34,18.292z M2858.85,39.21v36.108h119.529V39.21H2858.85z M2870.803,134.835
		c10.789,2.988,21.664,6.973,32.621,11.953h29.385c2.822-3.65,5.313-6.638,7.471-8.965c2.156-2.654,4.234-3.984,6.227-3.984
		c2.988,0,7.969,2.576,14.941,7.72c8.131,5.315,12.201,9.132,12.201,11.455c0,1.494-1.244,3.237-3.734,5.229
		c-2.49,1.494-3.902,3.074-4.232,4.731v36.606c0,2.987-4.234,5.147-12.701,6.476c-3.82,0.497-6.643,0.746-8.467,0.746
		c-4.648,0-6.973-2.404-6.973-7.222v-1.992h-37.604v7.222c0,3.151-4.232,5.561-12.699,7.223c-3.822,0.498-6.561,0.746-8.219,0.746
		c-5.479,0-8.217-2.656-8.217-7.969c0.66-4.813,0.996-10.209,0.996-16.187v-31.875
		C2871.797,150.772,2871.463,143.469,2870.803,134.835z M2899.938,190.865h37.604v-37.104h-37.604V190.865z"/>
</g>
</svg>
