<?xml version="1.0" encoding="utf-8"?>
<!-- Generator: Adobe Illustrator 16.0.0, SVG Export Plug-In . SVG Version: 6.00 Build 0)  -->
<!DOCTYPE svg PUBLIC "-//W3C//DTD SVG 1.1//EN" "http://www.w3.org/Graphics/SVG/1.1/DTD/svg11.dtd" [
	<!ENTITY ns_extend "http://ns.adobe.com/Extensibility/1.0/">
	<!ENTITY ns_ai "http://ns.adobe.com/AdobeIllustrator/10.0/">
	<!ENTITY ns_graphs "http://ns.adobe.com/Graphs/1.0/">
	<!ENTITY ns_vars "http://ns.adobe.com/Variables/1.0/">
	<!ENTITY ns_imrep "http://ns.adobe.com/ImageReplacement/1.0/">
	<!ENTITY ns_sfw "http://ns.adobe.com/SaveForWeb/1.0/">
	<!ENTITY ns_custom "http://ns.adobe.com/GenericCustomNamespace/1.0/">
	<!ENTITY ns_adobe_xpath "http://ns.adobe.com/XPath/1.0/">
	<!ENTITY st0 "fill:#E56D2C;">
	<!ENTITY st1 "fill:#8FC544;">
	<!ENTITY st2 "fill:#F0AB21;">
	<!ENTITY st3 "fill:#FFFFFF;">
	<!ENTITY st4 "fill:#058ECA;">
	<!ENTITY st5 "fill:#D93B2C;">
]>
<svg version="1.1" id="圖層_1" xmlns:x="&ns_extend;" xmlns:i="&ns_ai;" xmlns:graph="&ns_graphs;"
	 xmlns="http://www.w3.org/2000/svg" xmlns:xlink="http://www.w3.org/1999/xlink" x="0px" y="0px" width="854.666px"
	 height="625.75px" viewBox="0.0002 0 854.666 625.75" style="enable-background:new 0.0002 0 854.666 625.75;"
	 xml:space="preserve">
<metadata>
	<sfw  xmlns="&ns_sfw;">
		<slices></slices>
		<sliceSourceBounds  width="849.8232" height="620.0371" bottomLeftOrigin="true" y="111.7148" x="-127.3955"></sliceSourceBounds>
	</sfw>
</metadata>
<path style="&st5;" d="M443.6526,11.4053c14.5811,24.6699,31.167,47.8936,49.9023,69.5938
	c37.6494,43.6099,81.0762,80.5898,128.9863,112.4038c49.5,32.8691,102.2578,59.417,157.8975,80.146
	c23.6406,8.8071,47.6494,16.6289,71.8223,25.0142c-72.168,0-144.207,0-216.6885,0c0.4102,9.9922,3.4492,18.5562,7.0098,26.9468
	c10.8408,25.5605,27.8975,46.7012,47.5508,65.875c34.8555,34.0088,75.5947,59.5957,118.4385,82.1211
	c1.9404,1.0205,3.6816,2.4219,5.1533,4.7285c-1.0186,0.0996-2.1113,0.4912-3.0459,0.2568
	c-73.8545-18.5234-142.2236-48.2061-199.6455-99.543c-33.1123-29.6055-58.3545-64.917-74.1396-106.6812
	c-0.4512-1.1938-0.793-2.4292-1.4063-4.3242c34.584,0,68.6133,0,102.6426,0c0.1357-0.3687,0.2705-0.7388,0.4043-1.1079
	c-4.3359-3.1367-8.7061-6.228-13.0029-9.418c-53.3467-39.5991-101.167-84.7109-138.7832-139.8857
	c-19.9961-29.3291-35.7188-60.7212-44.3887-95.3574c-0.3184-1.2759-0.46-2.5967-0.6846-3.896
	C442.3372,15.9893,442.9944,13.6973,443.6526,11.4053z"/>
<path style="&st1;" d="M281.9006,89.8721c-6.5615,70.3599-41.4385,126.6069-88.3428,177.583c85.9277,0,171.2969,0,256.665,0
	c0.0469,0.3857,0.0938,0.7729,0.1416,1.1592c-5.8857,0.9297-11.7588,1.9487-17.6602,2.7734
	c-18.6045,2.6025-37.2148,5.1694-55.833,7.6802c-26.2012,3.5332-52.4121,6.998-78.6172,10.5039
	c-9.8916,1.3232-19.8242,2.4321-29.624,4.249c-1.8545,0.3442-3.5479,3.3691-4.6797,5.4961
	c-7.0811,13.3003-12.9395,27.3804-21.1631,39.9175c-16.333,24.9014-38.2012,44.4727-63.3467,60.3633
	c-30.3516,19.1816-63.21,32.2715-98.1768,40.165c-8.4277,1.9023-16.8994,3.627-25.3877,5.2422
	c-2.8076,0.5342-5.7295,0.4658-8.7422-0.2471c9.1309-4.5098,18.3896-8.7822,27.3711-13.5732
	c31.0859-16.5791,58.8984-37.3252,81.0215-65.0586c13.3887-16.7822,23.9277-35.125,29.4287-56.0771
	c0.2471-0.939,0.4102-1.8999,0.8848-4.1348c-61.3652,9.0098-122.0996,17.9268-182.834,26.8447
	c-0.1895-0.541-0.3789-1.0811-0.5684-1.6221c2.166-1.1152,4.2617-2.4043,6.5078-3.3223
	c39.8174-16.2896,77.6465-36.3706,113.1025-60.6895c54.8965-37.6528,102.3242-82.9292,138.4746-139.2422
	c7.0557-10.9897,12.8506-22.79,19.2285-34.2139C280.4592,92.3989,281.1838,91.1372,281.9006,89.8721z"/>
<path style="&st4;" d="M557.4026,383.9707c-1.1709,0.1133-2.4092,0.5352-3.5039,0.2969
	c-57.1543-12.3955-113.7451-10.4336-169.4707,7.4893c-35.4512,11.4023-68.0098,28.4463-96.4893,52.7959
	c-1.2588,1.0771-3.208,1.9043-4.8369,1.9082c-40.4824,0.1045-80.9668,0.082-122.667,0.082c2.3408-1.8662,3.8184-3.2178,5.46-4.3262
	c43.6484-29.4551,90.1611-53.0371,140.7363-68.1621c48.1621-14.4023,97.3408-20.25,147.5088-16.2754
	c33.3252,2.6406,65.7852,9.5215,96.9668,21.8486c2.2295,0.8809,4.2793,2.208,6.4141,3.3291
	C557.4807,383.293,557.4417,383.6318,557.4026,383.9707z"/>
<path style="&st2;" d="M472.4573,239.7632c-2.3213,0-4.6455,0-6.9678,0c-28.6572,0.002-57.3164,0.106-85.9736-0.1294
	c-3.3652-0.0278-7.2822-1.1279-9.9844-3.0669c-27.3027-19.5879-45.8008-45.939-57.8252-77.0142
	c-3.04-7.8564-5.7383-15.917-7.7266-24.0938c-2.3809-9.7959-3.832-19.8188-4.5693-30.248c2.6016,3.0723,5.3057,6.064,7.7881,9.229
	c27.8389,35.4902,59.7949,66.6973,97.0762,92.1763c19.0195,12.998,39.4316,23.4868,61.5879,30.252
	c2.1787,0.665,4.4141,1.1348,6.623,1.6948C472.4758,238.9629,472.4661,239.3633,472.4573,239.7632z"/>
<path style="&st0;" d="M438.0364,57.417c-3.5215,10.2158-6.3467,20.7412-10.7051,30.5869
	c-10.9404,24.7183-26.9922,46.0381-45.4775,65.6279c-2.5771,2.73-4.5488,3.165-7.415,0.6299
	c-11.7988-10.4336-23.6865-20.7656-36.5537-32.0205c2.2627-0.3965,2.9609-0.6582,3.6406-0.6172
	c21.6533,1.2959,39.4023-7.937,55.5654-20.9761c13.9102-11.2222,25.7236-24.4678,35.8965-39.168
	c1.1074-1.6011,2.3076-3.1372,3.4639-4.7041C436.9797,56.9902,437.5081,57.2031,438.0364,57.417z"/>
<path style="&st0;" d="M443.6526,11.4053c-0.6582,2.292-1.3154,4.5825-1.9746,6.8726c-1.2695-5.418-2.5371-10.834-3.8066-16.25
	c0.3398-0.1348,0.6797-0.27,1.0195-0.4048C440.4788,4.8838,442.0657,8.145,443.6526,11.4053z"/>
<g>
	<g>
		<path style="&st3;" d="M291.426,502.4199c-5.9375,3.0645-5.4775,7.417-5.3779,11.7354
			c0.1538,6.6357-0.0083,13.2803,0.2769,19.9092c0.1494,3.4365-1.3027,4.918-4.8247,4.957c-0.5239,0.0059-1.042,0.207-1.5708,0.2578
			c-7.6514,0.7441-8.4326,0.1631-9.1563-6.998c-7.1646,0-14.3589,0-21.8242,0c0,9.5557,0.1177,18.9561-0.1021,28.3516
			c-0.0415,1.8037-1.146,4.9609-2.1929,5.1279c-4.0547,0.6455-8.2886,0.4033-12.4419,0.2188
			c-0.2534-0.0117-0.5444-2.373-0.5508-3.6426c-0.0459-9.9248-0.0249-19.8486-0.0249-30.0342c-7.0532,0-13.896,0-20.7227,0
			c-1.0732,6.0596-8.0513,9.4805-13.9595,6.7461c-0.9556-0.4434-1.8569-2.0205-1.8555-3.0703
			c0.0171-6.4639,0.3726-12.9258,0.4702-19.3906c0.0967-6.416,0.0215-12.834,0.0215-19.6299
			c4.6851,1.0596,9.5889,2.1689,14.7178,3.3291c0,2.9248,0,5.5518,0,8.1602c7.0796-2.166,13.8833-4.249,21.147-6.4736
			c0-6.6104,0-13.6348,0-21.4678c6.4131,0.8574,12.5645,1.6797,20.3564,2.7197c-7.7178,5.0781-4.4556,11.0576-5.2046,16.9189
			c7.6348-0.3721,14.8301-0.7148,22.0215-1.0898c0.499-0.0254,1.0059-0.2471,1.4653-0.46c2.2817-1.0498,5.0537-3.4746,6.7178-2.9297
			C282.9885,497.0361,286.6614,499.7471,291.426,502.4199z M270.8625,501.7852c-7.5381,0.4502-14.7021,0.876-22.0107,1.3105
			c0,8.9873,0,17.5332,0,26.3301c7.4077,0,14.5801,0,22.0107,0C270.8625,520.3633,270.8625,511.4795,270.8625,501.7852z
			 M233.6052,504.7666c-6.4761,2.1875-12.4521,4.0781-18.2925,6.2783c-1.2246,0.46-2.7236,2.0156-2.7886,3.1348
			c-0.3013,5.0488-0.1323,10.1221-0.1323,15.1787c7.5381,0,14.3501,0,21.2134,0
			C233.6052,521.3105,233.6052,513.5771,233.6052,504.7666z"/>
	</g>
	<g>
		<path style="&st3;" d="M143.9197,546.4678c1.8076,2.0283,3.6147,4.0566,6.0933,6.8379c-10.335,0-19.7656,0-29.4692,0
			c0,2.9365,0,5.3311,0,8.8799c7.0366,0,14.1182,0.4482,21.0684-0.2471c2.3813-0.2402,4.729-3.1191,6.5635-5.2012
			c2.5156-2.8535,4.7129-2.9619,7.4795-0.4854c2.603,2.3291,5.3535,4.5127,8.041,6.7598c-0.2153,0.4922-0.4307,0.9854-0.645,1.4775
			c-1.8174,0-3.6338-0.0029-5.4502,0c-28.0591,0.0635-56.1201,0.1455-84.1802,0.1621c-2.8867,0.001-6.9678,2.1846-7.6631-2.8242
			c13.1938,0,26.2466,0,39.5874,0c0-2.4189,0-5.0059,0-7.4375c-8.7056,0-17.311,0.1318-25.9048-0.0986
			c-1.9888-0.0527-3.9365-1.3516-5.9033-2.0771c0.1958-0.3711,0.3911-0.7412,0.5879-1.1123c10.3989,0,20.7988,0,31.3511,0
			c0-1.6855,0-3.3037,0-5.7295c-7.6396,0.9141-15.1367,1.8115-23.9526,2.8662c-0.8311-2.6699-2.1538-6.9131-3.6631-11.7637
			c4.2676,0.4238,7.7817,0.5879,11.2197,1.1543c5.1553,0.8477,6.5986-1.6748,6.7275-5.6045
			c-4.8447-2.1309-11.0557,1.9375-16.0229-3.2773c14.5454,0,27.9707,0.0039,41.3945-0.001
			c5.9385-0.0029,6.2837-0.1914,10.2988-5.6016c-17.5332,0-34.835,0-52.3979,0c-0.3062,1.7598-0.5347,3.7148-0.9976,5.6201
			c-1.2612,5.1865-6.6187,7.7617-11.9048,5.8018c-3.8496-1.4277-4.2573-6.2236-0.9189-8.9775
			c3.6641-3.0244,7.1587-6.2295,11.1665-9.7402c0.3735,0.916,1.1167,2.7354,1.9487,4.7744c21.3828,0,42.8643,0.0752,64.3433-0.1318
			c1.875-0.0186,3.7295-1.8887,5.5928-2.8975l-0.0991,0.0566c5.3765-2.7832,12.5928,0.3398,14.6572,5.8604
			c-5.4307,3.6826-10.7007,7.2578-14.8428,10.0664c1.0962,3.7705,2.7563,6.8721,2.4956,9.8271
			c-0.1084,1.2197-4.3354,2.1211-6.6914,3.168c-0.2651-0.2461-0.5293-0.4932-0.7944-0.7383
			c-0.0762,0.127-0.1548,0.252-0.2329,0.3779C143.175,546.2979,143.5481,546.3828,143.9197,546.4678z M140.5193,544.6826
			c0.4673,0.1865,0.9346,0.373,1.4028,0.5596c-0.1338-0.376-0.2671-0.7529-0.3989-1.1289
			c-1.4346-1.7314-1.2734-5.1387-5.3457-4.0283c-5.1909,1.416-10.4595,2.582-15.6382,3.8418c0,2.5459,0,4.7822,0,6.9355
			c5.8682,1.3936,10.4844,0.4463,14.2715-4.041C135.9114,545.5166,138.5735,545.3643,140.5193,544.6826z M144.2297,529.5264
			c-0.1987,0.4395-0.397,0.8789-0.5947,1.3193c-14.4824,1.585-30.2939-3.4912-42.1724,6.8779c10.5059,0,21.79,0,34.2085,0
			c-2.6646-1.9766-4.2832-3.1768-5.9028-4.376c0.1919-0.3262,0.3809-0.6523,0.5728-0.9785c4.6968,0.3857,9.394,0.7715,14.6987,1.207
			c0.376-3.6309,0.729-7.0391,1.083-10.4512c-4.0791,0-7.2676,0-10.7632,0C138.5623,525.4375,141.3967,527.4824,144.2297,529.5264z"
			/>
		<path style="&st3;" d="M148.3098,517.5938c-1.0669,0.0488-2.1372,0.085-3.2056,0.1523
			c-4.2856,0.2725-8.9092,2.8828-12.4976-1.7725c-0.3979-0.5176-2.0166-0.2793-3.0703-0.2813
			c-10.647-0.0205-21.2939-0.084-31.939,0.0576c-1.4063,0.0186-2.7568,1.2227-4.2041,1.6885
			c-1.627,0.5225-3.3145,1.0811-5.0093,1.1904c-8.4956,0.5488-8.4985,0.498-8.4956-7.2578c0.001-2.9414,0-5.8838,0-9.1025
			c19.2954,3.5469,38.4814,4.9082,57.5518,0.7158c0.0137-0.6387,0.0259-1.2773,0.0396-1.916
			c-1.2349-0.1094-2.4717-0.3242-3.7056-0.3105c-18.0859,0.1846-36.1733,0.4521-54.2607,0.5098
			c-1.4907,0.0049-2.9858-1.3789-4.4795-2.1162c0.2334-0.3408,0.4644-0.6826,0.6943-1.0254c9.6772,0,19.3535,0,29.3818,0
			c0-1.6201,0-3.4844,0-5.3799c-10.8442,0-21.5986,0.0947-32.3472-0.0889c-1.9131-0.0322-3.8027-1.2197-5.7036-1.877
			c0.1753-0.4541,0.3481-0.9102,0.5229-1.3662c12.4805,0,24.9629,0,37.6611,0c0-2.3457,0-4.7432,0-7.8525
			c6.1865,0.8535,12.0986,1.6719,19.2842,2.665c-2.5293,2.0498-3.8433,3.1152-5.1587,4.1807
			c0.1655,0.3975,0.3306,0.7959,0.4956,1.1934c10.0986-0.9775,21.6504,4.499,29.4443-7.6201
			c4.2559,3.1689,8.0239,5.9766,11.7915,8.7813c-0.1191,0.4307-0.2388,0.8613-0.3579,1.291c-5.2686,0-10.5352,0-15.8022,0
			c-0.1084,0.3857-0.2158,0.7725-0.3252,1.1582c2.7705,2.0576,5.5386,4.1152,9.5332,7.082c-5.2417,0-8.9565,0-12.6714,0
			c-0.1108,0.3242-0.2231,0.6475-0.334,0.9707c2.979,1.6396,5.958,3.2793,9.4351,5.1924c-4.3413,3.375-4.418,7.1504-2.3721,11.1973
			C148.2102,517.6504,148.3098,517.5938,148.3098,517.5938z M93.9143,512.8525c13.3286,0,26.1685,0,39.2954,0
			c-0.0952-1.915-0.1733-3.4824-0.248-5.0107c-13.2671,0-26.123,0-39.0469,0C93.9143,509.5996,93.9143,511.0645,93.9143,512.8525z
			 M119.7664,498.4766c7.4189-0.2188,15.2817,2.1992,20.2031-5.9688c-6.8091,0-13.4067,0-20.2031,0
			C119.7664,494.5156,119.7664,496.2617,119.7664,498.4766z"/>
	</g>
	<g>
		<path style="&st3;" d="M420.5051,516.7354c-5.8481,2.5605-5.9556,6.2256-5.7729,10.1895
			c0.2231,4.7998,0.1543,9.6201,0.0273,14.4258c-0.1724,6.5703-10.3379,13.751-17.1367,12.1338
			c-0.7002-0.167-1.4644-0.8604-1.7998-1.4932c-3.9673-7.4629-3.9478-7.4717-10.0708-11.6152c5.3057,0,9.5024,0,14.0283,0
			c0-7.9902,0-15.1709,0-22.5459c-5.6841,0-11.2949,0-16.9722,0c0,13.9453-0.0039,27.6514,0.0005,41.3564
			c0.0049,6.9932-0.0176,7.0557-7.6836,7.417c-2.459,0.1152-4.9268,0.0186-8.1348,0.0186c0-16.3369,0-32.46,0-48.7988
			c-5.8262,0-10.9019,0-16.1641,0c0,10.5391,0.1016,20.9209-0.0854,31.2998c-0.0371,2.0713-0.8496,5.7217-1.8726,5.9072
			c-4.0449,0.7334-8.3164,0.4385-12.4971,0.3105c-0.3188-0.0107-0.8271-1.6904-0.8311-2.5967
			c-0.0527-13.9141-0.0366-27.8281-0.0366-41.46c10.1084,1.499,20.2065,2.9971,30.8857,4.5811c0-5.9531,0-10.4814,0-15.6768
			c6.917,1.0654,13.5566,2.0889,19.292,2.9727c-1.5244,3.957-2.8105,7.2959-4.416,11.4629
			c9.3608-0.2061,17.5029,2.1602,23.811-4.5537c0.625-0.666,2.7876-0.8428,3.7036-0.3613
			C412.4221,511.627,415.8528,513.8975,420.5051,516.7354z"/>
		<path style="&st3;" d="M411.9954,486.2764c4.6504,3.748,9.0151,7.2705,13.3818,10.791c-0.2578,0.4229-0.5181,0.8467-0.7769,1.2715
			c-1.5103,0.1084-3.0215,0.3066-4.5352,0.3125c-30.313,0.1377-60.6294,0.291-90.9448,0.2676
			c-1.604-0.001-3.2056-1.5293-4.1353-3.3389c15.3101,0,30.6206,0,47.062,0c-4.4673-5.1963-8.5166-9.9102-12.4717-14.5098
			c4.4995-2.377,18.3911-0.499,22.1069,3.6797c3.1934,3.5889,2.1299,7.25-0.8267,11.2061c7.0869,0,13.5942,0.1836,20.0728-0.1318
			c1.5762-0.0762,3.2432-1.6152,4.5469-2.793C407.6121,491.0967,409.4885,488.9072,411.9954,486.2764z"/>
	</g>
	<path style="&st3;" d="M517.428,527.9072c2.084,6.1494,5.3379,11.5352,9.7686,16.1611c4.4932,4.6875,8.498,7.0303,12.0156,7.0303
		c2.4736,0,4.916-4.7773,7.3262-14.334l1.9531,0.3643c-0.5869,8.0352-0.8789,12.9971-0.8789,14.8828
		c0,1.3389,0.8789,3.1357,2.6367,5.3877c0.8467,1.0342,1.2705,2.1914,1.2705,3.4697c0,3.6514-2.5742,5.4785-7.7168,5.4785
		c-9.1836,0-17.4854-3.835-24.9102-11.5049c-7.3594-7.6699-12.374-16.6172-15.042-26.8428h-19.4404v19.6289
		c6.1201-0.6689,13.8379-1.8857,23.1514-3.6523l0.4893,1.2783c-11.7881,8.0352-24.0313,13.665-36.7305,16.8916
		c-0.1943,0.0605-0.4883,0.9736-0.8799,2.7402c-0.2598,0.9727-0.749,1.4609-1.4648,1.4609c-0.9121,0-3.6797-5.7842-8.3027-17.3486
		c0.7158,0,1.6279,0,2.7354,0c0.8457,0,1.6611,0,2.4424,0c1.6924-0.0605,3.4189-0.1514,5.1777-0.2744v-46.3809
		c0-9.0068-0.2295-15.1865-0.6846-18.5342c6.5107,1.5215,11.4609,2.8604,14.8477,4.0176h41.2227
		c4.4932-3.5303,7-5.2959,7.5225-5.2959c0.6494,0,2.54,1.0039,5.665,3.0127c3.126,2.0703,4.6895,3.4102,4.6895,4.0176
		c0,0.4873-0.3584,0.9736-1.0742,1.4609c-1.7578,1.0957-2.6387,1.7334-2.6387,1.917v5.752c0,0.7314,0.0664,4.8398,0.1953,12.3262
		c0,1.7656-2.9297,2.6475-8.791,2.6475c-3.0615,0-4.5908-0.5479-4.5908-1.6436l0.0967-3.0127h-13.8701
		c0.2598,5.3574,1.3008,10.835,3.125,16.4346h13.7744c5.0146-5.9648,7.8467-8.9473,8.498-8.9473
		c0.7148,0,2.8643,1.5518,6.4473,4.6563c3.5156,3.165,5.2754,5.0205,5.2754,5.5684c0,0.793-0.3906,1.1865-1.1719,1.1865H517.428z
		 M484.4104,490.0176v16.709h43.1768v-16.709H484.4104z M484.4104,509.0088v16.4346h18.7559
		c-1.1729-4.8701-2.0518-10.3477-2.6377-16.4346H484.4104z"/>
	<path style="&st3;" d="M637.803,518.1387h-10.5498v26.8428c4.4268-0.7305,9.0176-1.7949,13.7725-3.1953l0.5859,1.6436
		c-13.0254,8.9473-26.9277,15.1572-41.7119,18.626c-0.1299,0.0596-0.292,0.8818-0.4873,2.4648
		c-0.1309,0.9141-0.5225,1.3701-1.1729,1.3701c-1.041,0-3.4189-5.4785-7.1309-16.4355c2.7354,0,5.0469-0.1211,6.9365-0.3652
		v-25.1992c0-7.1211-0.3271-12.8418-0.9775-17.1641c9.7686,1.4004,14.6523,2.4961,14.6523,3.2861
		c0,0.4883-0.3271,0.8525-0.9766,1.0967c-1.2383,0.5469-1.8564,0.9736-1.8564,1.2773v35.5156
		c2.7998-0.3643,4.9492-0.668,6.4473-0.9121V492.209h-6.3486c-1.8242,0-3.7461,0.0313-5.7627,0.0918c-0.458,0-0.7822,0-0.9775,0
		c-3.2578,0.0615-5.6348,0.2129-7.1309,0.4551l-1.9551-3.833c4.4287,0.6084,10.4844,0.9121,18.1709,0.9121h11.2334
		c4.4277-5.7197,6.999-8.582,7.7168-8.582c0.8447,0,2.8965,1.4922,6.1543,4.4746c3.2559,3.043,4.8838,4.8691,4.8838,5.4775
		c0,0.6709-0.293,1.0039-0.8789,1.0039h-13.1865v23.6475c2.4082-6.0859,3.8721-9.1299,4.3945-9.1299
		c0.8457,0,3.126,3.0732,6.8379,9.2207c3.4512-11.2598,5.1777-23.1289,5.1777-35.6064c5.0801,0.9736,9.2803,1.8252,12.6016,2.5557
		c3.2549,0.6709,4.8838,1.3389,4.8838,2.0078c0,0.5488-0.4238,0.9453-1.2695,1.1875c-1.499,0.5479-2.2471,0.8828-2.2471,1.0049
		c-1.3037,5.417-2.8984,10.4082-4.7871,14.9736h10.1602c3.9727-5.5381,6.2832-8.3086,6.9355-8.3086
		c0.7158,0,2.7988,1.4609,6.252,4.3818c3.5166,2.8623,5.2744,4.5967,5.2744,5.2051s-0.3271,0.9121-0.9766,0.9121h-5.2754
		c-0.585,6.6357-2.1484,13.6035-4.6885,20.9082c-2.54,7.3652-5.3408,12.9648-8.4004,16.7998c0,0.4883,2.1484,2.0078,6.4463,4.5654
		c4.2334,2.5557,9.0195,4.7168,14.3594,6.4824l-0.1943,1.2783c-2.54,0.2422-4.3965,3.1953-5.5684,8.8564
		c-0.4561,1.9473-1.1406,2.9209-2.0508,2.9209c-1.5,0-4.6895-1.8564-9.5732-5.5684c-4.8848-3.7754-8.499-7.3662-10.8438-10.7744
		c-8.4014,7.5479-19.0479,12.9346-31.9434,16.1611l-0.9756-1.3701c12.3086-5.6602,21.7832-13.2695,28.4258-22.8252
		c-2.8662-5.6611-4.5908-14-5.1777-25.0176c0,0.2441-1.1719,1.7656-3.5166,4.5654c-2.3438,2.8623-4.2666,4.9004-5.7627,6.1172
		l-1.4658-1.0049C635.5217,523.9814,636.6936,521.2432,637.803,518.1387z M662.0276,504.3525h-10.0615
		c-1.7578,3.7129-3.3545,6.8174-4.7861,9.3125c0,0.1221,0.7813,2.8623,2.3447,8.2178c1.5625,5.3564,3.3203,9.4639,5.2754,12.3242
		C659.1624,525.9902,661.5715,516.0391,662.0276,504.3525z"/>
	<path style="&st3;" d="M797.1135,518.5039h-52.2617c-0.4561,22.2773-7.1963,38.1035-20.2207,47.4785l-1.4648-0.9141
		c6.252-13.3916,9.3779-32.0156,9.3779-55.877v-11.3213c0-6.4512-0.293-11.4121-0.8789-14.8828
		c4.6885,1.0361,9.6045,2.4971,14.75,4.3828h43.665c4.0371-3.1045,6.3486-4.6563,6.9355-4.6563
		c0.6504,0,2.4414,0.8828,5.3721,2.6475c2.9307,1.8271,4.3955,3.0449,4.3955,3.6523c0,0.5479-0.1943,1.0039-0.585,1.3691
		c-1.8896,1.3398-2.834,2.2529-2.834,2.7393v3.9268c0,2.4951,0.1299,5.3564,0.3916,8.582c0,0.0605,0,0.1523,0,0.2734
		c0,1.7656-2.9648,2.6475-8.8896,2.6475c-2.6064,0-3.9082-0.5469-3.9082-1.6436v-1.6426h-45.8125
		c-0.0654,1.6426-0.0977,3.5605-0.0977,5.752c0,2.252-0.0332,3.9258-0.0986,5.0215h50.8936c3.7773-3.1641,6.0889-4.748,6.9365-4.748
		c0.585,0,2.376,0.9443,5.3721,2.8311c3.0596,1.8252,4.5918,3.0732,4.5918,3.7422c0,0.6104-0.1953,1.0361-0.5869,1.2783
		c-1.8896,1.2793-2.832,2.3145-2.832,3.1045c0,0.0615,0,0.2148,0,0.457c0,0.2432,0,0.4561,0,0.6396
		c0,11.626-0.75,21.6689-2.2471,30.1299c-1.4336,8.3994-6.6758,12.5986-15.7266,12.5986c-1.1738,0-1.8564-0.7295-2.0527-2.1904
		c-0.4561-3.2275-1.2383-5.3564-2.3438-6.3916c-1.042-1.0947-4.2002-2.373-9.4756-3.834l0.293-1.7354
		c5.6006,0.6074,10.3867,0.9121,14.3604,0.9121c1.7588,0,2.8633-1.7646,3.3203-5.2949c0.5215-3.4697,0.9111-7.6377,1.1719-12.5088
		c0.2598-4.8691,0.3916-9.8896,0.3916-15.0645C797.0159,519.3574,797.0481,518.8691,797.1135,518.5039z M790.9583,503.0742v-13.1475
		h-45.8125v13.1475H790.9583z M787.9319,547.3555v0.0908c0,1.7656-3.0293,2.6475-9.085,2.6475
		c-2.2148,0-3.3213-0.5469-3.3213-1.6436v-1.7344h-14.5547v3.1953c0,1.7041-2.8984,2.5576-8.6953,2.5576
		c-2.5391,0-3.8086-0.5479-3.8086-1.6445v-0.0908c0.3252-4.5039,0.4883-7.8203,0.4883-9.9521v-6.9375
		c0-4.8086-0.2617-8.5215-0.7803-11.1396c4.752,0.9736,9.2451,2.1914,13.4795,3.6514h12.7959
		c3.5801-2.9805,5.7637-4.4727,6.5449-4.4727c0.6504,0,2.377,0.8525,5.1777,2.5557c2.7988,1.7666,4.2002,2.9824,4.2002,3.6523
		c0,0.4883-0.1963,0.9131-0.5859,1.2783c-1.6289,1.1563-2.4434,1.9482-2.4434,2.374v6.2998
		C787.344,540.5986,787.5413,543.7031,787.9319,547.3555z M775.5256,528.8213h-14.5547v15.6123h14.5547V528.8213z"/>
	<g>
		<path style="&st3;" d="M93.3289,605.9932c-0.4468,3.2246-1.6733,5.7275-3.6797,7.5039c-2.0059,1.7783-4.5967,2.667-7.7734,2.667
			c-3.8008,0-6.8652-1.2852-9.1943-3.8525c-2.3291-2.5684-3.4946-5.9473-3.4946-10.1348c0-4.3584,1.186-7.834,3.5566-10.4268
			c2.3696-2.5938,5.5435-3.8896,9.52-3.8896c3.1533,0,5.7271,0.8584,7.7212,2.5742c1.9941,1.7168,3.1323,4.0605,3.415,7.0303
			h-6.2471c-0.3062-1.29-0.8857-2.2607-1.7383-2.9121c-0.8535-0.6514-1.9746-0.9775-3.3618-0.9775
			c-1.8599,0-3.3301,0.7607-4.4121,2.2832c-1.0825,1.5225-1.624,3.6035-1.624,6.2441c0,2.6299,0.5117,4.6719,1.5356,6.126
			c1.0229,1.4561,2.4644,2.1826,4.3237,2.1826c1.4937,0,2.6909-0.377,3.5913-1.1318c0.8999-0.7549,1.4614-1.8506,1.6855-3.2861
			H93.3289z"/>
		<path style="&st3;" d="M97.3528,615.4141v-26.8965h6.6353v26.8965H97.3528z"/>
		<path style="&st3;" d="M115.1941,615.4141l-8.9297-26.8965h7.0586l3.6533,13.8232c0.0586,0.2314,0.1592,0.6094,0.2998,1.1318
			c0.4473,1.6553,0.7886,3.043,1.0234,4.1641c0.1304-0.5479,0.2886-1.1934,0.4766-1.9365c0.188-0.7412,0.4531-1.7158,0.7944-2.9219
			l3.8291-14.2607h7.0063l-8.9824,26.8965H115.1941z"/>
		<path style="&st3;" d="M132.7356,615.4141v-26.8965h6.6353v26.8965H132.7356z"/>
		<path style="&st3;" d="M144.8069,615.4141v-26.8965h6.6699v21.0723h12.583v5.8242H144.8069z"/>
		<path style="&st3;" d="M184.2483,588.5176h7.2715l9.1763,26.8965h-7.1475l-1.5879-4.9297h-8.6831l-1.4829,4.9297h-6.8994
			L184.2483,588.5176z M184.866,604.915h5.6831l-2.895-9.2764L184.866,604.915z"/>
		<path style="&st3;" d="M203.2903,615.4141v-26.8965h18.6528v5.5879h-12.0356v5.5693h10.4478v5.5684h-10.4478v10.1709H203.2903z"/>
		<path style="&st3;" d="M225.3318,615.4141v-26.8965h18.6533v5.5879H231.95v5.5693h10.4468v5.5684H231.95v10.1709H225.3318z"/>
		<path style="&st3;" d="M252.6677,588.5176h7.271l9.1768,26.8965h-7.1484l-1.5874-4.9297h-8.6826l-1.4829,4.9297h-6.8999
			L252.6677,588.5176z M253.2854,604.915h5.6821l-2.8945-9.2764L253.2854,604.915z"/>
		<path style="&st3;" d="M271.8328,615.4141v-26.8965h6.6353v26.8965H271.8328z"/>
		<path style="&st3;" d="M283.7092,615.4141v-26.8965h12.4414c3.2939,0,5.7212,0.6094,7.2798,1.8262
			c1.5586,1.2178,2.3379,3.1045,2.3379,5.6602c0,1.5098-0.3325,2.8037-0.9971,3.8809c-0.665,1.0771-1.6968,1.9814-3.0967,2.7119
			c1.1401,0.4492,1.9468,1.0615,2.417,1.835c0.4707,0.7725,0.7422,2.1328,0.812,4.0811c0.0356,0.5479,0.0713,1.2852,0.106,2.21
			c0.0825,2.166,0.4409,3.4199,1.0767,3.7607v0.9307h-6.9707c-0.3408-0.9492-0.5352-2.251-0.582-3.9072
			c-0.0479-1.6543-0.0942-2.6963-0.1411-3.1221c-0.1069-1.0469-0.4478-1.8145-1.0234-2.3008
			c-0.5776-0.4873-1.4419-0.7305-2.5952-0.7305h-4.4468v10.0605H283.7092z M290.3269,600.0391h4.959
			c1.3413,0,2.3262-0.2549,2.957-0.7656c0.6284-0.5117,0.9434-1.3271,0.9434-2.4482c0-0.9854-0.3062-1.7188-0.918-2.1992
			c-0.6118-0.4814-1.5469-0.7217-2.8057-0.7217h-5.1357V600.0391z"/>
		<path style="&st3;" d="M309.0154,606.4854h6.3887c0.0464,1.5342,0.4824,2.6875,1.3062,3.4609
			c0.8228,0.7734,2.0293,1.1592,3.6172,1.1592c1.3525,0,2.4004-0.2314,3.1416-0.6943s1.1118-1.1133,1.1118-1.9531
			c0-0.4268-0.0884-0.8057-0.2642-1.1416c-0.1772-0.335-0.4238-0.5869-0.7417-0.7578c-0.4829-0.2676-1.665-0.6875-3.5469-1.2598
			c-1.8828-0.5723-3.4712-1.126-4.7651-1.6621c-1.8706-0.7666-3.2915-1.7793-4.2617-3.04
			c-0.9707-1.2598-1.4556-2.7295-1.4556-4.4092c0-2.5684,0.9321-4.6113,2.7964-6.127c1.8647-1.5156,4.3916-2.2734,7.5796-2.2734
			c3.1299,0,5.6123,0.7979,7.4473,2.3926c1.8354,1.5947,2.7534,3.749,2.7534,6.4639h-6.2656
			c-0.1401-1.2539-0.5674-2.1787-1.2788-2.7764c-0.7119-0.5957-1.7383-0.8936-3.0791-0.8936c-1.0708,0-1.9414,0.2275-2.6118,0.6846
			c-0.6709,0.4561-1.0063,1.0381-1.0063,1.7432c0,1.1934,1.5942,2.3193,4.7827,3.3789c0.5757,0.1943,1.0166,0.3398,1.3232,0.4375
			l0.2646,0.0918c3.2939,1.1074,5.353,2.0029,6.1768,2.6836c0.835,0.7061,1.4702,1.5381,1.9058,2.4932
			c0.4351,0.9561,0.6528,2.0176,0.6528,3.1865c0,2.6777-0.9912,4.7637-2.9736,6.2539c-1.9824,1.4912-4.7622,2.2373-8.3379,2.2373
			c-3.377,0-5.9478-0.8008-7.7119-2.4014C310.1985,612.1621,309.2156,609.7354,309.0154,606.4854z"/>
		<path style="&st3;" d="M345.5813,615.4141v-26.8965h12.6182c3.0229,0,5.2554,0.5635,6.6968,1.6885
			c1.4409,1.127,2.1621,2.8574,2.1621,5.1953c0,1.4492-0.3208,2.6455-0.9614,3.5879c-0.6421,0.9443-1.6211,1.6719-2.939,2.1826
			c1.5063,0.4014,2.6582,1.123,3.4595,2.1631c0.7993,1.042,1.1992,2.335,1.1992,3.8809c0,1.5098-0.332,2.873-0.9966,4.0898
			c-0.665,1.2178-1.5972,2.1621-2.7979,2.8311c-0.811,0.4629-1.7939,0.791-2.9463,0.9854c-1.1533,0.1963-2.9302,0.292-5.3296,0.292
			H345.5813z M351.9519,599.0352h5.3477c1.1289,0,1.9697-0.2158,2.5229-0.6475s0.8301-1.0869,0.8301-1.9629
			c0-0.8164-0.2593-1.4336-0.7773-1.8535c-0.5176-0.4199-1.2817-0.6299-2.293-0.6299h-5.6304V599.0352z M351.9519,610.0654h5.0298
			c1.5879,0,2.7002-0.2285,3.335-0.6855c0.6357-0.457,0.9531-1.2256,0.9531-2.3096c0-0.9736-0.3032-1.708-0.9087-2.2012
			c-0.6064-0.4922-1.5093-0.7393-2.709-0.7393h-5.7002V610.0654z"/>
		<path style="&st3;" d="M371.7527,588.5176h6.5469v16.7998c0,1.8506,0.3379,3.168,1.0146,3.9531
			c0.6758,0.7852,1.7974,1.1777,3.3623,1.1777c1.5405,0,2.647-0.3926,3.3174-1.1777c0.6699-0.7852,1.0054-2.1025,1.0054-3.9531
			v-16.7998h6.6187v15.9775c0,2.2529-0.2124,4.0479-0.6357,5.3877c-0.4233,1.3389-1.1245,2.4707-2.1001,3.3955
			c-1.0234,0.9619-2.2153,1.6836-3.5732,2.1641c-1.3594,0.4814-2.8916,0.7217-4.5972,0.7217c-1.7065,0-3.2383-0.2402-4.5977-0.7217
			c-1.3589-0.4805-2.5503-1.2021-3.5732-2.1641c-0.9883-0.9365-1.7012-2.0781-2.1357-3.4238
			c-0.4351-1.3447-0.6523-3.1318-0.6523-5.3594V588.5176z"/>
		<path style="&st3;" d="M398.5232,615.4141v-26.8965h12.4414c3.2944,0,5.7212,0.6094,7.2798,1.8262
			c1.5591,1.2178,2.3384,3.1045,2.3384,5.6602c0,1.5098-0.332,2.8037-0.9971,3.8809c-0.6646,1.0771-1.6973,1.9814-3.0972,2.7119
			c1.1411,0.4492,1.9473,1.0615,2.418,1.835c0.4702,0.7725,0.7412,2.1328,0.8115,4.0811c0.0352,0.5479,0.0708,1.2852,0.1064,2.21
			c0.082,2.166,0.4409,3.4199,1.0757,3.7607v0.9307h-6.9707c-0.3413-0.9492-0.5352-2.251-0.5825-3.9072
			c-0.0469-1.6543-0.0938-2.6963-0.1411-3.1221c-0.106-1.0469-0.4473-1.8145-1.0229-2.3008
			c-0.5771-0.4873-1.4414-0.7305-2.5947-0.7305h-4.4468v10.0605H398.5232z M405.1414,600.0391h4.959
			c1.3413,0,2.3262-0.2549,2.9561-0.7656c0.6294-0.5117,0.9438-1.3271,0.9438-2.4482c0-0.9854-0.3057-1.7188-0.9175-2.1992
			c-0.6113-0.4814-1.5469-0.7217-2.8062-0.7217h-5.1353V600.0391z"/>
		<path style="&st3;" d="M425.0837,615.4141v-26.8965h19.7456v5.5146h-13.0928v4.748h11.9639v5.3867h-11.9639v5.752h13.5166v5.4951
			H425.0837z"/>
		<path style="&st3;" d="M456.0188,588.5176h7.2705l9.1768,26.8965h-7.1475l-1.5879-4.9297h-8.6826l-1.4824,4.9297h-6.8994
			L456.0188,588.5176z M456.636,604.915h5.6826l-2.8936-9.2764L456.636,604.915z"/>
		<path style="&st3;" d="M474.2141,588.5176h6.5459v16.7998c0,1.8506,0.3389,3.168,1.0156,3.9531
			c0.6758,0.7852,1.7969,1.1777,3.3623,1.1777c1.541,0,2.6465-0.3926,3.3174-1.1777c0.6699-0.7852,1.0059-2.1025,1.0059-3.9531
			v-16.7998h6.6182v15.9775c0,2.2529-0.2119,4.0479-0.6367,5.3877c-0.4229,1.3389-1.123,2.4707-2.0986,3.3955
			c-1.0244,0.9619-2.2158,1.6836-3.5742,2.1641c-1.3584,0.4814-2.8916,0.7217-4.5967,0.7217c-1.707,0-3.2393-0.2402-4.5977-0.7217
			c-1.3584-0.4805-2.5498-1.2021-3.5742-2.1641c-0.9873-0.9365-1.7002-2.0781-2.1348-3.4238
			c-0.4355-1.3447-0.6523-3.1318-0.6523-5.3594V588.5176z"/>
		<path style="&st3;" d="M499.3079,615.4141v-6.4268h6.4941v4.6748c0,2.4346-0.5469,4.3154-1.6396,5.6426
			c-1.0957,1.3262-2.748,2.1113-4.96,2.3555v-2.2461c1.2002-0.3047,2.082-0.7646,2.6475-1.3789
			c0.5645-0.6143,0.8457-1.4277,0.8457-2.4375v-0.1836H499.3079z"/>
		<path style="&st3;" d="M526.2561,615.4141v-21.4365h-7.4473v-5.46h21.5469v5.46h-7.4473v21.4365H526.2561z"/>
		<path style="&st3;" d="M548.7913,588.5176h7.2705l9.1758,26.8965h-7.1455l-1.5889-4.9297h-8.6816l-1.4824,4.9297h-6.9004
			L548.7913,588.5176z M549.4084,604.915h5.6826l-2.8936-9.2764L549.4084,604.915z"/>
		<path style="&st3;" d="M567.9573,615.4141v-26.8965h6.6348v26.8965H567.9573z"/>
		<path style="&st3;" d="M602.9329,605.9932c-0.4453,3.2246-1.6729,5.7275-3.6787,7.5039c-2.0059,1.7783-4.5967,2.667-7.7734,2.667
			c-3.8008,0-6.8643-1.2852-9.1943-3.8525c-2.3291-2.5684-3.4941-5.9473-3.4941-10.1348c0-4.3584,1.1846-7.834,3.5557-10.4268
			c2.3721-2.5938,5.5439-3.8896,9.5215-3.8896c3.1523,0,5.7256,0.8584,7.7207,2.5742c1.9932,1.7168,3.1318,4.0605,3.4141,7.0303
			h-6.2471c-0.3057-1.29-0.8857-2.2607-1.7373-2.9121c-0.8535-0.6514-1.9746-0.9775-3.3623-0.9775
			c-1.8604,0-3.3301,0.7607-4.4121,2.2832c-1.083,1.5225-1.624,3.6035-1.624,6.2441c0,2.6299,0.5117,4.6719,1.5361,6.126
			c1.0234,1.4561,2.4639,2.1826,4.3232,2.1826c1.4941,0,2.6914-0.377,3.5908-1.1318c0.9004-0.7549,1.4619-1.8506,1.6855-3.2861
			H602.9329z"/>
		<path style="&st3;" d="M606.7981,615.4141v-26.8965h6.6895v9.5498h9.1055v-9.5498h6.6875v26.8965h-6.6875v-11.3389h-9.1055
			v11.3389H606.7981z"/>
		<path style="&st3;" d="M634.2405,588.5176h6.5469v16.7998c0,1.8506,0.3379,3.168,1.0146,3.9531
			c0.6758,0.7852,1.7969,1.1777,3.3623,1.1777c1.541,0,2.6465-0.3926,3.3174-1.1777s1.0049-2.1025,1.0049-3.9531v-16.7998h6.6182
			v15.9775c0,2.2529-0.2109,4.0479-0.6348,5.3877c-0.4238,1.3389-1.124,2.4707-2.1006,3.3955
			c-1.0225,0.9619-2.2139,1.6836-3.5732,2.1641c-1.3584,0.4814-2.8916,0.7217-4.5977,0.7217c-1.7051,0-3.2373-0.2402-4.5957-0.7217
			c-1.3594-0.4805-2.5508-1.2021-3.5742-2.1641c-0.9873-0.9365-1.7012-2.0781-2.1348-3.4238
			c-0.4355-1.3447-0.6533-3.1318-0.6533-5.3594V588.5176z"/>
		<path style="&st3;" d="M661.011,615.4141v-26.8965h7.2012l4.9063,8.8379c0.7988,1.4365,1.5576,2.8613,2.2764,4.2734
			c0.7168,1.4121,1.3936,2.8057,2.0293,4.1807c-0.0957-2.0332-0.165-3.9365-0.2139-5.7148
			c-0.0459-1.7773-0.0684-3.3408-0.0684-4.6934v-6.8838h6.4229v26.8965h-7.1826l-5.0996-9.0928
			c-0.5996-1.0703-1.2529-2.2734-1.959-3.6064c-0.707-1.333-1.4541-2.7725-2.2412-4.3184c0.1289,1.7529,0.2236,3.3838,0.2822,4.8936
			c0.0576,1.5098,0.0879,2.8486,0.0879,4.0176v8.1064H661.011z"/>
		<path style="&st3;" d="M708.2542,615.4141l-0.5303-3.4688c-0.9766,1.4121-2.1387,2.4629-3.4844,3.1504
			c-1.3477,0.6865-2.9219,1.0313-4.7217,1.0313c-1.6826,0-3.2383-0.3164-4.668-0.9492c-1.4287-0.6328-2.6904-1.5635-3.7852-2.7939
			c-1.1416-1.2666-2.0068-2.7578-2.5938-4.4736c-0.5898-1.7168-0.8828-3.5918-0.8828-5.625c0-4.3936,1.2148-7.918,3.6455-10.5723
			c2.4287-2.6543,5.6611-3.9814,9.6963-3.9814c3.0469,0,5.5625,0.793,7.5449,2.374c1.9824,1.584,3.2373,3.7988,3.7666,6.6484
			h-6.3711c-0.4229-1.1572-1.0703-2.0313-1.9414-2.6211c-0.8691-0.5908-1.9336-0.8857-3.1924-0.8857
			c-1.9063,0-3.4482,0.8037-4.625,2.4102c-1.1768,1.6074-1.7637,3.7314-1.7637,6.373c0,2.6055,0.5791,4.6777,1.7373,6.2178
			c1.1592,1.54,2.71,2.3096,4.6514,2.3096c1.5518,0,2.8379-0.4072,3.8545-1.2227c1.0186-0.8164,1.6504-1.9551,1.8975-3.416h-5.7881
			v-5.168h11.7178v14.6631H708.2542z"/>
		<path style="&st3;" d="M750.9778,605.9932c-0.4473,3.2246-1.6738,5.7275-3.6797,7.5039c-2.0059,1.7783-4.5967,2.667-7.7734,2.667
			c-3.8018,0-6.8643-1.2852-9.1943-3.8525c-2.3281-2.5684-3.4941-5.9473-3.4941-10.1348c0-4.3584,1.1846-7.834,3.5566-10.4268
			c2.3701-2.5938,5.5439-3.8896,9.5205-3.8896c3.1533,0,5.7266,0.8584,7.7197,2.5742c1.9951,1.7168,3.1328,4.0605,3.415,7.0303
			h-6.2471c-0.3066-1.29-0.8857-2.2607-1.7373-2.9121c-0.8545-0.6514-1.9756-0.9775-3.3623-0.9775
			c-1.8604,0-3.3301,0.7607-4.4131,2.2832c-1.082,1.5225-1.623,3.6035-1.623,6.2441c0,2.6299,0.5117,4.6719,1.5371,6.126
			c1.0225,1.4561,2.4629,2.1826,4.3223,2.1826c1.4941,0,2.6914-0.377,3.5918-1.1318c0.8984-0.7549,1.4609-1.8506,1.6846-3.2861
			H750.9778z"/>
		<path style="&st3;" d="M755.0012,615.4141v-26.8965h6.6357v26.8965H755.0012z"/>
		<path style="&st3;" d="M772.1204,615.4141v-21.4365h-7.4482v-5.46h21.5469v5.46h-7.4463v21.4365H772.1204z"/>
		<path style="&st3;" d="M795.219,615.4141v-10.1328l-8.9805-16.7637h7.4639l4.7832,10.8467l4.7646-10.8467h7.5176l-9.0713,16.7637
			v10.1328H795.219z"/>
	</g>
</g>
</svg>
